<svg width="37" height="37" viewBox="0 0 37 37" fill="none" xmlns="http://www.w3.org/2000/svg">
<path d="M36.1772 0C36.3453 0 36.4824 0.138526 36.4824 0.305296C36.4824 9.249 30.0268 16.7106 21.531 18.2788C20.5721 18.0999 19.5849 17.999 18.5803 17.9775C18.5829 17.9748 18.5829 17.9708 18.5803 17.9694C28.0471 17.7704 35.7064 10.0882 35.8719 0.613282C26.6524 0.771983 19.133 8.02243 18.548 17.1329C18.4996 16.3246 18.396 15.5298 18.2427 14.7551C19.8875 6.35608 27.3034 0 36.1772 0Z" fill="#111110"/>
<path d="M36.4824 36.2523C36.4824 36.4205 36.3466 36.5576 36.1772 36.5576C27.3034 36.5576 19.8875 30.2016 18.2427 21.8039C18.3947 21.0279 18.4982 20.2344 18.548 19.4261C19.133 28.5352 26.6524 35.787 35.8719 35.9457C35.7078 26.4708 28.0485 18.7886 18.5803 18.5895C18.5829 18.5869 18.5829 18.5828 18.5803 18.5815C19.5862 18.5613 20.5734 18.4591 21.531 18.2802C30.0268 19.8484 36.4824 27.3113 36.4824 36.2537V36.2523Z" fill="#111110"/>
<path d="M35.8703 0.61322C35.7062 10.0882 28.0469 17.7703 18.5787 17.9694C18.5746 17.6896 18.5639 17.4112 18.5464 17.1328C19.1314 8.02237 26.6509 0.77192 35.8703 0.61322Z" fill="#111110"/>
<path d="M18.5787 18.5868C28.0455 18.7858 35.7048 26.468 35.8703 35.9429C26.6509 35.7843 19.1314 28.5338 18.5464 19.4233C18.5652 19.1449 18.5746 18.8665 18.5787 18.5868Z" fill="#111110"/>
<path d="M18.5786 17.9776C19.5846 17.9978 20.5718 18.1 21.5294 18.2789C20.5704 18.4577 19.5833 18.5586 18.5786 18.5801C18.5826 18.4806 18.5826 18.3784 18.5826 18.2789C18.5826 18.1793 18.5826 18.0771 18.5786 17.9776Z" fill="#111110"/>
<path d="M18.5786 17.9775C18.5826 18.077 18.5826 18.1792 18.5826 18.2788C18.5826 18.1147 18.4522 17.9802 18.2881 17.9762C18.3849 17.9735 18.4804 17.9762 18.5786 17.9788V17.9775Z" fill="#111110"/>
<path d="M18.5826 18.2787C18.5826 18.3783 18.5826 18.4805 18.5786 18.58C18.4818 18.5827 18.3863 18.584 18.2881 18.5827C18.4522 18.5787 18.5826 18.4442 18.5826 18.2801V18.2787Z" fill="#111110"/>
<path d="M18.5789 18.5788C18.5789 18.5788 18.5816 18.5855 18.5789 18.5869C18.556 18.5842 18.5345 18.5842 18.5117 18.5842C18.5157 18.8639 18.5278 19.145 18.5466 19.4234C18.4982 20.2317 18.3946 21.0265 18.2413 21.8012C18.0867 21.0319 17.9858 20.2438 17.936 19.4409C17.9549 19.1571 17.967 18.8706 17.971 18.5842C17.9481 18.5842 17.9239 18.5842 17.9024 18.5869C17.8997 18.5842 17.8997 18.5801 17.9024 18.5788C17.9992 18.5815 18.0947 18.5828 18.1929 18.5815C18.1969 18.5842 18.1996 18.5842 18.2037 18.5842C18.2319 18.5842 18.2602 18.5842 18.2884 18.5815C18.3852 18.5842 18.4807 18.5815 18.5789 18.5788Z" fill="#111110"/>
<path d="M18.5789 17.9695C18.5789 17.9695 18.5816 17.9762 18.5789 17.9775C18.4821 17.9749 18.3866 17.9735 18.2884 17.9749C18.2602 17.9722 18.2319 17.9722 18.2037 17.9722C18.1996 17.9722 18.1969 17.9722 18.1929 17.9749C18.0961 17.9722 18.0006 17.9749 17.9024 17.9775C17.8997 17.9749 17.8997 17.9708 17.9024 17.9695C17.9253 17.9722 17.9495 17.9722 17.971 17.9722C17.967 17.6857 17.9549 17.3992 17.936 17.1155C17.9844 16.3125 18.0867 15.5244 18.2413 14.7551C18.3933 15.5311 18.4969 16.3246 18.5466 17.1329C18.5278 17.4113 18.5157 17.6911 18.5117 17.9722C18.5345 17.9722 18.556 17.9722 18.5789 17.9695Z" fill="#111110"/>
<path d="M18.5785 17.9694C18.5556 17.9721 18.5341 17.9721 18.5112 17.9721C18.5153 17.6924 18.5274 17.4113 18.5462 17.1329C18.565 17.4113 18.5744 17.6897 18.5785 17.9694Z" fill="#111110"/>
<path d="M18.5112 18.5854C18.5341 18.5854 18.5556 18.5854 18.5785 18.5881C18.5744 18.8679 18.5637 19.1463 18.5462 19.4247C18.5274 19.1463 18.5153 18.8665 18.5112 18.5854Z" fill="#111110"/>
<path d="M18.288 17.9763C18.4521 17.9803 18.5825 18.1148 18.5825 18.2789C18.5825 18.4429 18.4521 18.5774 18.288 18.5815C18.2597 18.5842 18.2315 18.5842 18.2032 18.5842C18.1992 18.5842 18.1965 18.5842 18.1925 18.5815C18.0298 18.5774 17.8979 18.4429 17.8979 18.2789C17.8979 18.1148 18.0298 17.9803 18.1925 17.9763C18.1965 17.9736 18.1992 17.9736 18.2032 17.9736C18.2315 17.9736 18.2597 17.9736 18.288 17.9763Z" fill="#111110"/>
<path d="M17.902 17.9776C17.9988 17.9749 18.0943 17.9735 18.1925 17.9749C18.0298 17.9789 17.8979 18.1134 17.8979 18.2775C17.8979 18.178 17.8979 18.0758 17.902 17.9762V17.9776Z" fill="#111110"/>
<path d="M18.1925 18.5815C18.0957 18.5842 18.0002 18.5815 17.902 18.5788C17.8979 18.4793 17.8979 18.3771 17.8979 18.2775C17.8979 18.4416 18.0298 18.5761 18.1925 18.5801V18.5815Z" fill="#111110"/>
<path d="M17.9724 17.9721C17.9495 17.9721 17.9253 17.9721 17.9038 17.9694C17.9078 17.683 17.9186 17.3965 17.9388 17.1141C17.9576 17.3979 17.9697 17.6843 17.9737 17.9708L17.9724 17.9721Z" fill="#111110"/>
<path d="M17.9022 18.5868C17.9251 18.5841 17.9493 18.5841 17.9708 18.5841C17.9668 18.8706 17.9547 19.157 17.9358 19.4408C17.9157 19.1584 17.9049 18.8719 17.9009 18.5855L17.9022 18.5868Z" fill="#111110"/>
<path d="M18.2425 14.7539C18.0878 15.5232 17.9869 16.3113 17.9372 17.1142C17.34 8.01314 9.82462 0.772105 0.613282 0.613404C0.776017 10.0883 8.43532 17.7705 17.9022 17.9696C17.8995 17.9723 17.8995 17.9763 17.9022 17.9776C16.8962 17.9978 15.909 18.1 14.9514 18.2789C6.4556 16.7107 0 9.24778 0 0.305418C0 0.138649 0.138526 0.00012207 0.305296 0.00012207C9.17906 0.00012207 16.5949 6.3562 18.2425 14.7539Z" fill="#111110"/>
<path d="M17.9372 19.4422C17.9856 20.2451 18.0878 21.0333 18.2425 21.8026C16.5949 30.2016 9.17906 36.5563 0.305296 36.5563C0.138526 36.5563 0 36.4205 0 36.251C0 27.3073 6.4556 19.8457 14.9514 18.2775C15.9104 18.4564 16.8975 18.5573 17.9022 18.5788C17.8995 18.5815 17.8995 18.5855 17.9022 18.5869C8.43532 18.7859 0.776017 26.4681 0.613282 35.943C9.82462 35.7843 17.34 28.5433 17.9372 19.4422Z" fill="#111110"/>
<path d="M17.9372 17.114C17.917 17.3964 17.9062 17.6829 17.9022 17.9694C8.43532 17.7703 0.776016 10.0882 0.613281 0.61322C9.82462 0.77192 17.34 8.01296 17.9372 17.114Z" fill="#111110"/>
<path d="M17.9022 18.5868C17.9062 18.8733 17.917 19.1597 17.9372 19.4422C17.34 28.5432 9.82462 35.7843 0.613281 35.9429C0.776016 26.468 8.43532 18.7858 17.9022 18.5868Z" fill="#111110"/>
<path d="M17.8984 18.2789C17.8984 18.3784 17.8984 18.4806 17.9024 18.5801C16.8964 18.56 15.9092 18.4577 14.9517 18.2789C15.9106 18.1 16.8978 17.9991 17.9024 17.9776C17.8984 18.0771 17.8984 18.1793 17.8984 18.2789Z" fill="#111110"/>
</svg>
