<svg width="192" height="288" viewBox="0 0 192 288" fill="none" xmlns="http://www.w3.org/2000/svg">
<path d="M96 96L45 96C20.1472 96 -1.17361e-05 116.147 -7.39074e-06 141L1.52638e-06 192L51 192C75.8528 192 96 171.853 96 147L96 96Z" fill="#FF7700"/>
<path d="M0 0L36 -9.44166e-06C69.1371 -1.81325e-05 96 26.8629 96 60L96 96L2.51778e-05 96L0 0Z" fill="#007095"/>
<path d="M0 288L36 288C69.1371 288 96 261.137 96 228L96 192L-1.67852e-05 192L0 288Z" fill="#007095"/>
<path d="M96 95L132 95C165.137 95 192 121.863 192 155L192 192L96 192L96 95Z" fill="#007095"/>
<path d="M192 192L141 192C116.147 192 96 212.147 96 237L96 288L147 288C171.853 288 192 267.853 192 243L192 192Z" fill="#FF7700"/>
</svg>
