<svg width="39" height="44" viewBox="0 0 39 44" fill="none" xmlns="http://www.w3.org/2000/svg">
<path d="M2.9375 37.1691L2.9375 39.6562C2.9375 40.4591 2.27167 41.1249 1.46875 41.1249C0.665834 41.1249 2.29412e-07 40.4591 2.99605e-07 39.6562L8.56015e-07 33.2916C9.50176e-07 32.2145 0.881251 31.3333 1.95833 31.3333L8.32292 31.3333C9.12583 31.3333 9.79167 31.9991 9.79167 32.802C9.79167 33.6049 9.12583 34.2708 8.32292 34.2708L4.09292 34.2708C8.225 37.9133 13.6496 40.1458 19.5833 40.1458C28.2392 40.1458 33.8204 35.857 35.7396 32.1166C35.9746 31.627 36.4838 31.3333 37.0321 31.3333C38.1288 31.3333 38.8533 32.4887 38.3442 33.4483C35.8375 38.4028 29.0029 43.0833 19.5833 43.0833C13.2775 43.0833 7.48083 40.8703 2.9375 37.1691ZM6.26667 10.9078C6.26667 12.1808 7.44167 13.1208 8.695 12.8466L15.6667 11.2799L15.6667 32.3124C15.6667 33.9378 16.9788 35.2499 18.6042 35.2499C20.2296 35.2499 21.5417 33.9378 21.5417 32.3124L21.5417 20.5624L23.3238 20.5624C23.9308 20.5624 24.5379 20.4253 25.0667 20.1512L33.0763 16.1562C34.5842 15.412 35.4458 13.767 35.2108 12.1024L33.9771 3.36825C33.7029 1.4295 32.0383 -7.73078e-05 30.0996 -7.74773e-05L18.0363 -7.85319e-05C16.9983 -7.86226e-05 15.51 0.411172 14.7854 1.15534L6.815 9.55658C6.46156 9.91731 6.26454 10.4028 6.26667 10.9078Z" fill="#F36906"/>
</svg>
