<svg width="20" height="21" viewBox="0 0 20 21" fill="none" xmlns="http://www.w3.org/2000/svg">
<path d="M0 17.9045V7.50832C0 7.14253 0.0864479 6.79599 0.259344 6.46871C0.432241 6.14142 0.670481 5.87189 0.974064 5.66012L8.27954 0.46205C8.70569 0.154017 9.19273 0 9.74064 0C10.2885 0 10.7756 0.154017 11.2017 0.46205L18.5072 5.66012C18.8116 5.87189 19.0502 6.14142 19.2231 6.46871C19.396 6.79599 19.4821 7.14253 19.4813 7.50832V17.9045C19.4813 18.5398 19.2426 19.0838 18.7653 19.5366C18.288 19.9895 17.715 20.2155 17.0461 20.2147H13.3934C13.0484 20.2147 12.7594 20.1038 12.5265 19.882C12.2935 19.6602 12.1766 19.3861 12.1758 19.0596V13.2839C12.1758 12.9567 12.0589 12.6825 11.8251 12.4615C11.5914 12.2405 11.3024 12.1296 10.9582 12.1288H8.52306C8.17808 12.1288 7.8891 12.2397 7.65614 12.4615C7.42318 12.6833 7.30629 12.9574 7.30548 13.2839V19.0596C7.30548 19.3869 7.18859 19.6614 6.95481 19.8832C6.72104 20.105 6.43207 20.2155 6.0879 20.2147H2.43516C1.76549 20.2147 1.19242 19.9887 0.715937 19.5366C0.239457 19.0846 0.00081172 18.5405 0 17.9045Z" fill="white"/>
</svg>
