<svg width="29" height="21" viewBox="0 0 29 21" fill="none" xmlns="http://www.w3.org/2000/svg">
<path d="M7.0349 1.64909C7.0349 1.21173 7.2202 0.792274 7.55002 0.483008C7.87985 0.173743 8.32719 0 8.79363 0H26.3809C26.8473 0 27.2947 0.173743 27.6245 0.483008C27.9543 0.792274 28.1396 1.21173 28.1396 1.64909C28.1396 2.08646 27.9543 2.50592 27.6245 2.81518C27.2947 3.12445 26.8473 3.29819 26.3809 3.29819H8.79363C8.32719 3.29819 7.87985 3.12445 7.55002 2.81518C7.2202 2.50592 7.0349 2.08646 7.0349 1.64909ZM9.37987 19.2394C9.37987 18.8021 9.56517 18.3826 9.89499 18.0734C10.2248 17.7641 10.6722 17.5903 11.1386 17.5903H26.3809C26.8473 17.5903 27.2947 17.7641 27.6245 18.0734C27.9543 18.3826 28.1396 18.8021 28.1396 19.2394C28.1396 19.6768 27.9543 20.0963 27.6245 20.4055C27.2947 20.7148 26.8473 20.8885 26.3809 20.8885H11.1386C10.6722 20.8885 10.2248 20.7148 9.89499 20.4055C9.56517 20.0963 9.37987 19.6768 9.37987 19.2394ZM1.75873 8.79517C1.29228 8.79517 0.844944 8.96891 0.515119 9.27818C0.185294 9.58744 0 10.0069 0 10.4443C0 10.8816 0.185294 11.3011 0.515119 11.6104C0.844944 11.9196 1.29228 12.0934 1.75873 12.0934H26.3809C26.8473 12.0934 27.2947 11.9196 27.6245 11.6104C27.9543 11.3011 28.1396 10.8816 28.1396 10.4443C28.1396 10.0069 27.9543 9.58744 27.6245 9.27818C27.2947 8.96891 26.8473 8.79517 26.3809 8.79517H1.75873Z" fill="white"/>
</svg>
