<svg width="23" height="23" viewBox="0 0 23 23" fill="none" xmlns="http://www.w3.org/2000/svg">
<path d="M13.8293 21.2753C13.4077 22.6122 11.7344 22.4219 11.3197 20.9897L8.02718 9.62063C7.94796 9.3478 7.93102 9.06173 7.97813 8.79252C8.02525 8.52332 8.13468 8.28093 8.29491 8.09086C8.45514 7.9008 8.66025 7.77009 8.88865 7.71248C9.11705 7.65488 9.3603 7.67251 9.59281 7.76352L19.2808 11.5505C20.5005 12.0276 20.6753 13.9949 19.5429 14.5009L15.8748 16.1385C15.5565 16.281 15.311 16.5717 15.193 16.9462L13.8293 21.2753Z" stroke="white" stroke-width="1.5" stroke-linejoin="round"/>
<path d="M1.81173 9.60816L4.17289 8.97549M6.65752 4.08135L5.90288 1.26501M3.76108 5.48169L1.55789 3.93852M9.86607 3.84586L11.0025 1.40784" stroke="white" stroke-width="1.5" stroke-linecap="round" stroke-linejoin="round"/>
</svg>
