<svg width="24" height="24" viewBox="0 0 24 24" fill="none" xmlns="http://www.w3.org/2000/svg">
<path d="M23.7993 0C23.9099 0 24.0001 0.0909426 24.0001 0.200427C24.0001 6.07196 19.7532 10.9705 14.1642 12C13.5334 11.8826 12.884 11.8164 12.2231 11.8022C12.2248 11.8005 12.2248 11.7978 12.2231 11.7969C18.4509 11.6663 23.4896 6.62292 23.5984 0.40262C17.5334 0.506806 12.5867 5.26672 12.2018 11.2477C12.17 10.7171 12.1018 10.1953 12.001 9.68671C13.083 4.17276 17.9616 0 23.7993 0Z" fill="#EC6B34"/>
<path d="M24.0001 23.7997C24.0001 23.91 23.9107 24.0001 23.7993 24.0001C17.9616 24.0001 13.083 19.8273 12.001 14.3143C12.101 13.8048 12.1691 13.2839 12.2018 12.7532C12.5867 18.7334 17.5334 23.4942 23.5984 23.5984C23.4905 17.3781 18.4518 12.3347 12.2231 12.2041C12.2248 12.2023 12.2248 12.1996 12.2231 12.1988C12.8849 12.1855 13.5343 12.1184 14.1642 12.001C19.7532 13.0305 24.0001 17.9299 24.0001 23.8006V23.7997Z" fill="#EC6B34"/>
<path d="M23.5975 0.402588C23.4896 6.62288 18.4509 11.6662 12.2222 11.7969C12.2195 11.6132 12.2124 11.4305 12.2009 11.2477C12.5858 5.26669 17.5325 0.506775 23.5975 0.402588Z" fill="#EC6B34"/>
<path d="M12.2222 12.2021C18.45 12.3328 23.4887 17.3762 23.5975 23.5965C17.5325 23.4923 12.5858 18.7324 12.2009 12.7513C12.2133 12.5686 12.2195 12.3858 12.2222 12.2021Z" fill="#EC6B34"/>
<path d="M12.2222 11.8022C12.884 11.8155 13.5334 11.8826 14.1633 12C13.5325 12.1175 12.8831 12.1837 12.2222 12.1978C12.2248 12.1325 12.2248 12.0654 12.2248 12C12.2248 11.9347 12.2248 11.8676 12.2222 11.8022Z" fill="#EC6B34"/>
<path d="M12.2221 11.8024C12.2248 11.8677 12.2248 11.9348 12.2248 12.0002C12.2248 11.8925 12.1389 11.8042 12.031 11.8015C12.0947 11.7997 12.1575 11.8015 12.2221 11.8033V11.8024Z" fill="#EC6B34"/>
<path d="M12.2248 12.0002C12.2248 12.0656 12.2248 12.1327 12.2221 12.198C12.1584 12.1998 12.0956 12.2007 12.031 12.1998C12.1389 12.1971 12.2248 12.1088 12.2248 12.0011V12.0002Z" fill="#EC6B34"/>
<path d="M12.222 12.1968C12.222 12.1968 12.2238 12.2012 12.222 12.2021C12.207 12.2003 12.1928 12.2003 12.1778 12.2003C12.1804 12.384 12.1884 12.5685 12.2008 12.7513C12.1689 13.2819 12.1008 13.8037 11.9999 14.3123C11.8982 13.8073 11.8318 13.2899 11.7991 12.7627C11.8115 12.5764 11.8194 12.3884 11.8221 12.2003C11.807 12.2003 11.7911 12.2003 11.777 12.2021C11.7752 12.2003 11.7752 12.1977 11.777 12.1968C11.8407 12.1985 11.9035 12.1994 11.9681 12.1985C11.9707 12.2003 11.9725 12.2003 11.9751 12.2003C11.9937 12.2003 12.0123 12.2003 12.0309 12.1985C12.0946 12.2003 12.1574 12.1985 12.222 12.1968Z" fill="#EC6B34"/>
<path d="M12.222 11.797C12.222 11.797 12.2238 11.8014 12.222 11.8023C12.1583 11.8005 12.0955 11.7996 12.0309 11.8005C12.0123 11.7988 11.9937 11.7988 11.9751 11.7988C11.9725 11.7988 11.9707 11.7988 11.9681 11.8005C11.9044 11.7988 11.8415 11.8005 11.777 11.8023C11.7752 11.8005 11.7752 11.7979 11.777 11.797C11.792 11.7988 11.8079 11.7988 11.8221 11.7988C11.8194 11.6107 11.8115 11.4226 11.7991 11.2363C11.8309 10.7092 11.8982 10.1918 11.9999 9.68677C12.0999 10.1962 12.168 10.7172 12.2008 11.2478C12.1884 11.4306 12.1804 11.6142 12.1778 11.7988C12.1928 11.7988 12.207 11.7988 12.222 11.797Z" fill="#EC6B34"/>
<path d="M12.222 11.797C12.2069 11.7988 12.1928 11.7988 12.1777 11.7988C12.1804 11.6151 12.1884 11.4306 12.2007 11.2478C12.2131 11.4306 12.2193 11.6133 12.222 11.797Z" fill="#EC6B34"/>
<path d="M12.1777 12.2014C12.1928 12.2014 12.2069 12.2014 12.222 12.2032C12.2193 12.3868 12.2122 12.5696 12.2007 12.7524C12.1884 12.5696 12.1804 12.3859 12.1777 12.2014Z" fill="#EC6B34"/>
<path d="M12.031 11.8013C12.1389 11.804 12.2248 11.8923 12.2248 12C12.2248 12.1077 12.1389 12.196 12.031 12.1986C12.0124 12.2004 11.9938 12.2004 11.9753 12.2004C11.9726 12.2004 11.9708 12.2004 11.9682 12.1986C11.8611 12.196 11.7744 12.1077 11.7744 12C11.7744 11.8923 11.8611 11.804 11.9682 11.8013C11.9708 11.7996 11.9726 11.7996 11.9753 11.7996C11.9938 11.7996 12.0124 11.7996 12.031 11.8013Z" fill="#EC6B34"/>
<path d="M11.7771 11.8022C11.8408 11.8004 11.9036 11.7995 11.9682 11.8004C11.8611 11.803 11.7744 11.8913 11.7744 11.9991C11.7744 11.9337 11.7744 11.8666 11.7771 11.8013V11.8022Z" fill="#EC6B34"/>
<path d="M11.9682 12.1988C11.9045 12.2006 11.8417 12.1988 11.7771 12.197C11.7744 12.1317 11.7744 12.0646 11.7744 11.9993C11.7744 12.107 11.8611 12.1953 11.9682 12.1979V12.1988Z" fill="#EC6B34"/>
<path d="M11.823 11.7987C11.8079 11.7987 11.792 11.7987 11.7778 11.7969C11.7805 11.6088 11.7876 11.4208 11.8008 11.2354C11.8132 11.4217 11.8212 11.6097 11.8238 11.7978L11.823 11.7987Z" fill="#EC6B34"/>
<path d="M11.777 12.2022C11.792 12.2004 11.808 12.2004 11.8221 12.2004C11.8195 12.3885 11.8115 12.5766 11.7991 12.7629C11.7859 12.5775 11.7788 12.3894 11.7761 12.2013L11.777 12.2022Z" fill="#EC6B34"/>
<path d="M12.0009 9.68607C11.8991 10.1911 11.8328 10.7085 11.8001 11.2356C11.4072 5.26079 6.46317 0.50705 0.403451 0.402864C0.510507 6.62316 5.54922 11.6665 11.777 11.7972C11.7753 11.7989 11.7753 11.8016 11.777 11.8025C11.1152 11.8157 10.4658 11.8828 9.83588 12.0003C4.24685 10.9707 0 6.07132 0 0.200671C0 0.0911867 0.0911303 0.000244141 0.200841 0.000244141C6.03849 0.000244141 10.9171 4.17301 12.0009 9.68607Z" fill="#EC6B34"/>
<path d="M11.8001 12.7639C11.8319 13.291 11.8991 13.8084 12.0009 14.3134C10.9171 19.8274 6.03849 23.9993 0.200841 23.9993C0.0911303 23.9993 0 23.9101 0 23.7988C0 17.9273 4.24685 13.0288 9.83588 11.9993C10.4667 12.1167 11.1161 12.1829 11.777 12.197C11.7753 12.1988 11.7753 12.2015 11.777 12.2023C5.54922 12.333 0.510507 17.3764 0.403451 23.5967C6.46317 23.4925 11.4072 18.7387 11.8001 12.7639Z" fill="#EC6B34"/>
<path d="M11.8002 11.2354C11.7869 11.4208 11.7798 11.6088 11.7772 11.7969C5.54933 11.6662 0.51062 6.62288 0.403564 0.402588C6.46329 0.506775 11.4073 5.26051 11.8002 11.2354Z" fill="#EC6B34"/>
<path d="M11.7772 12.2021C11.7798 12.3902 11.7869 12.5783 11.8002 12.7637C11.4073 18.7385 6.46329 23.4923 0.403564 23.5965C0.51062 17.3762 5.54933 12.3328 11.7772 12.2021Z" fill="#EC6B34"/>
<path d="M11.7744 12C11.7744 12.0654 11.7744 12.1325 11.7771 12.1978C11.1153 12.1846 10.4659 12.1175 9.83594 12C10.4668 11.8826 11.1162 11.8164 11.7771 11.8022C11.7744 11.8676 11.7744 11.9347 11.7744 12Z" fill="#EC6B34"/>
</svg>
