<svg width="398" height="350" viewBox="0 0 398 350" fill="none" xmlns="http://www.w3.org/2000/svg">
<path d="M0 80C0 35.8172 35.8172 0 80 0H398V350H80C35.8172 350 0 314.183 0 270V80Z" fill="#FF7700"/>
<path d="M253.085 117.855L251.041 114.145H250.467V117.855H248.073V108.027H252.091C252.866 108.027 253.524 108.163 254.065 108.433C254.616 108.704 255.026 109.077 255.297 109.553C255.568 110.02 255.703 110.543 255.703 111.121C255.703 111.775 255.516 112.358 255.143 112.871C254.779 113.385 254.238 113.749 253.519 113.963L255.787 117.855H253.085ZM250.467 112.451H251.951C252.39 112.451 252.716 112.344 252.931 112.129C253.155 111.915 253.267 111.611 253.267 111.219C253.267 110.846 253.155 110.552 252.931 110.337C252.716 110.123 252.39 110.015 251.951 110.015H250.467V112.451ZM264.57 113.823C264.57 114.047 264.556 114.281 264.528 114.523H259.11C259.147 115.009 259.301 115.382 259.572 115.643C259.852 115.895 260.192 116.021 260.594 116.021C261.191 116.021 261.606 115.769 261.84 115.265H264.388C264.257 115.779 264.019 116.241 263.674 116.651C263.338 117.062 262.913 117.384 262.4 117.617C261.886 117.851 261.312 117.967 260.678 117.967C259.912 117.967 259.231 117.804 258.634 117.477C258.036 117.151 257.57 116.684 257.234 116.077C256.898 115.471 256.73 114.761 256.73 113.949C256.73 113.137 256.893 112.428 257.22 111.821C257.556 111.215 258.022 110.748 258.62 110.421C259.217 110.095 259.903 109.931 260.678 109.931C261.434 109.931 262.106 110.09 262.694 110.407C263.282 110.725 263.739 111.177 264.066 111.765C264.402 112.353 264.57 113.039 264.57 113.823ZM262.12 113.193C262.12 112.783 261.98 112.456 261.7 112.213C261.42 111.971 261.07 111.849 260.65 111.849C260.248 111.849 259.908 111.966 259.628 112.199C259.357 112.433 259.189 112.764 259.124 113.193H262.12ZM268.801 109.931C269.351 109.931 269.832 110.043 270.243 110.267C270.663 110.491 270.985 110.785 271.209 111.149V110.043H273.603V117.841C273.603 118.56 273.458 119.209 273.169 119.787C272.889 120.375 272.455 120.842 271.867 121.187C271.288 121.533 270.565 121.705 269.697 121.705C268.539 121.705 267.601 121.43 266.883 120.879C266.164 120.338 265.753 119.601 265.651 118.667H268.017C268.091 118.966 268.269 119.199 268.549 119.367C268.829 119.545 269.174 119.633 269.585 119.633C270.079 119.633 270.471 119.489 270.761 119.199C271.059 118.919 271.209 118.467 271.209 117.841V116.735C270.975 117.099 270.653 117.398 270.243 117.631C269.832 117.855 269.351 117.967 268.801 117.967C268.157 117.967 267.573 117.804 267.051 117.477C266.528 117.141 266.113 116.67 265.805 116.063C265.506 115.447 265.357 114.738 265.357 113.935C265.357 113.133 265.506 112.428 265.805 111.821C266.113 111.215 266.528 110.748 267.051 110.421C267.573 110.095 268.157 109.931 268.801 109.931ZM271.209 113.949C271.209 113.352 271.041 112.881 270.705 112.535C270.378 112.19 269.977 112.017 269.501 112.017C269.025 112.017 268.619 112.19 268.283 112.535C267.956 112.871 267.793 113.338 267.793 113.935C267.793 114.533 267.956 115.009 268.283 115.363C268.619 115.709 269.025 115.881 269.501 115.881C269.977 115.881 270.378 115.709 270.705 115.363C271.041 115.018 271.209 114.547 271.209 113.949ZM276.539 109.231C276.119 109.231 275.773 109.11 275.503 108.867C275.241 108.615 275.111 108.307 275.111 107.943C275.111 107.57 275.241 107.262 275.503 107.019C275.773 106.767 276.119 106.641 276.539 106.641C276.949 106.641 277.285 106.767 277.547 107.019C277.817 107.262 277.953 107.57 277.953 107.943C277.953 108.307 277.817 108.615 277.547 108.867C277.285 109.11 276.949 109.231 276.539 109.231ZM277.729 110.043V117.855H275.335V110.043H277.729ZM282.641 117.967C281.96 117.967 281.353 117.851 280.821 117.617C280.289 117.384 279.869 117.067 279.561 116.665C279.253 116.255 279.081 115.797 279.043 115.293H281.409C281.437 115.564 281.563 115.783 281.787 115.951C282.011 116.119 282.287 116.203 282.613 116.203C282.912 116.203 283.141 116.147 283.299 116.035C283.467 115.914 283.551 115.76 283.551 115.573C283.551 115.349 283.435 115.186 283.201 115.083C282.968 114.971 282.59 114.85 282.067 114.719C281.507 114.589 281.041 114.453 280.667 114.313C280.294 114.164 279.972 113.935 279.701 113.627C279.431 113.31 279.295 112.885 279.295 112.353C279.295 111.905 279.417 111.499 279.659 111.135C279.911 110.762 280.275 110.468 280.751 110.253C281.237 110.039 281.811 109.931 282.473 109.931C283.453 109.931 284.223 110.174 284.783 110.659C285.353 111.145 285.679 111.789 285.763 112.591H283.551C283.514 112.321 283.393 112.106 283.187 111.947C282.991 111.789 282.73 111.709 282.403 111.709C282.123 111.709 281.909 111.765 281.759 111.877C281.61 111.98 281.535 112.125 281.535 112.311C281.535 112.535 281.652 112.703 281.885 112.815C282.128 112.927 282.501 113.039 283.005 113.151C283.584 113.301 284.055 113.45 284.419 113.599C284.783 113.739 285.101 113.973 285.371 114.299C285.651 114.617 285.796 115.046 285.805 115.587C285.805 116.045 285.675 116.455 285.413 116.819C285.161 117.174 284.793 117.454 284.307 117.659C283.831 117.865 283.276 117.967 282.641 117.967ZM291.624 115.825V117.855H290.406C289.538 117.855 288.861 117.645 288.376 117.225C287.891 116.796 287.648 116.101 287.648 115.139V112.031H286.696V110.043H287.648V108.139H290.042V110.043H291.61V112.031H290.042V115.167C290.042 115.401 290.098 115.569 290.21 115.671C290.322 115.774 290.509 115.825 290.77 115.825H291.624ZM295.352 111.345C295.632 110.916 295.982 110.58 296.402 110.337C296.822 110.085 297.288 109.959 297.802 109.959V112.493H297.144C296.546 112.493 296.098 112.624 295.8 112.885C295.501 113.137 295.352 113.585 295.352 114.229V117.855H292.958V110.043H295.352V111.345ZM302.502 117.967C301.737 117.967 301.046 117.804 300.43 117.477C299.823 117.151 299.343 116.684 298.988 116.077C298.643 115.471 298.47 114.761 298.47 113.949C298.47 113.147 298.647 112.442 299.002 111.835C299.357 111.219 299.842 110.748 300.458 110.421C301.074 110.095 301.765 109.931 302.53 109.931C303.295 109.931 303.986 110.095 304.602 110.421C305.218 110.748 305.703 111.219 306.058 111.835C306.413 112.442 306.59 113.147 306.59 113.949C306.59 114.752 306.408 115.461 306.044 116.077C305.689 116.684 305.199 117.151 304.574 117.477C303.958 117.804 303.267 117.967 302.502 117.967ZM302.502 115.895C302.959 115.895 303.347 115.727 303.664 115.391C303.991 115.055 304.154 114.575 304.154 113.949C304.154 113.324 303.995 112.843 303.678 112.507C303.37 112.171 302.987 112.003 302.53 112.003C302.063 112.003 301.676 112.171 301.368 112.507C301.06 112.834 300.906 113.315 300.906 113.949C300.906 114.575 301.055 115.055 301.354 115.391C301.662 115.727 302.045 115.895 302.502 115.895ZM314.383 117.953C313.664 117.953 313.02 117.837 312.451 117.603C311.881 117.37 311.424 117.025 311.079 116.567C310.743 116.11 310.565 115.559 310.547 114.915H313.095C313.132 115.279 313.258 115.559 313.473 115.755C313.687 115.942 313.967 116.035 314.313 116.035C314.667 116.035 314.947 115.956 315.153 115.797C315.358 115.629 315.461 115.401 315.461 115.111C315.461 114.869 315.377 114.668 315.209 114.509C315.05 114.351 314.849 114.22 314.607 114.117C314.373 114.015 314.037 113.898 313.599 113.767C312.964 113.571 312.446 113.375 312.045 113.179C311.643 112.983 311.298 112.694 311.009 112.311C310.719 111.929 310.575 111.429 310.575 110.813C310.575 109.899 310.906 109.185 311.569 108.671C312.231 108.149 313.095 107.887 314.159 107.887C315.241 107.887 316.114 108.149 316.777 108.671C317.439 109.185 317.794 109.903 317.841 110.827H315.251C315.232 110.51 315.115 110.263 314.901 110.085C314.686 109.899 314.411 109.805 314.075 109.805C313.785 109.805 313.552 109.885 313.375 110.043C313.197 110.193 313.109 110.412 313.109 110.701C313.109 111.019 313.258 111.266 313.557 111.443C313.855 111.621 314.322 111.812 314.957 112.017C315.591 112.232 316.105 112.437 316.497 112.633C316.898 112.829 317.243 113.114 317.533 113.487C317.822 113.861 317.967 114.341 317.967 114.929C317.967 115.489 317.822 115.998 317.533 116.455C317.253 116.913 316.842 117.277 316.301 117.547C315.759 117.818 315.12 117.953 314.383 117.953ZM328.232 117.855H325.838L321.834 111.793V117.855H319.44V108.027H321.834L325.838 114.117V108.027H328.232V117.855ZM332.361 108.027V117.855H329.967V108.027H332.361ZM336.49 109.945V111.933H339.696V113.781H336.49V115.937H340.116V117.855H334.096V108.027H340.116V109.945H336.49ZM345.226 117.953C344.508 117.953 343.864 117.837 343.294 117.603C342.725 117.37 342.268 117.025 341.922 116.567C341.586 116.11 341.409 115.559 341.39 114.915H343.938C343.976 115.279 344.102 115.559 344.316 115.755C344.531 115.942 344.811 116.035 345.156 116.035C345.511 116.035 345.791 115.956 345.996 115.797C346.202 115.629 346.304 115.401 346.304 115.111C346.304 114.869 346.22 114.668 346.052 114.509C345.894 114.351 345.693 114.22 345.45 114.117C345.217 114.015 344.881 113.898 344.442 113.767C343.808 113.571 343.29 113.375 342.888 113.179C342.487 112.983 342.142 112.694 341.852 112.311C341.563 111.929 341.418 111.429 341.418 110.813C341.418 109.899 341.75 109.185 342.412 108.671C343.075 108.149 343.938 107.887 345.002 107.887C346.085 107.887 346.958 108.149 347.62 108.671C348.283 109.185 348.638 109.903 348.684 110.827H346.094C346.076 110.51 345.959 110.263 345.744 110.085C345.53 109.899 345.254 109.805 344.918 109.805C344.629 109.805 344.396 109.885 344.218 110.043C344.041 110.193 343.952 110.412 343.952 110.701C343.952 111.019 344.102 111.266 344.4 111.443C344.699 111.621 345.166 111.812 345.8 112.017C346.435 112.232 346.948 112.437 347.34 112.633C347.742 112.829 348.087 113.114 348.376 113.487C348.666 113.861 348.81 114.341 348.81 114.929C348.81 115.489 348.666 115.998 348.376 116.455C348.096 116.913 347.686 117.277 347.144 117.547C346.603 117.818 345.964 117.953 345.226 117.953Z" fill="white"/>
<path d="M275.966 127.715V126.553H278.598V136.675H277.31V127.715H275.966ZM280.786 131.509C280.786 129.903 281.048 128.653 281.57 127.757C282.093 126.851 283.008 126.399 284.314 126.399C285.612 126.399 286.522 126.851 287.044 127.757C287.567 128.653 287.828 129.903 287.828 131.509C287.828 133.142 287.567 134.411 287.044 135.317C286.522 136.222 285.612 136.675 284.314 136.675C283.008 136.675 282.093 136.222 281.57 135.317C281.048 134.411 280.786 133.142 280.786 131.509ZM286.568 131.509C286.568 130.697 286.512 130.011 286.4 129.451C286.298 128.881 286.078 128.424 285.742 128.079C285.416 127.733 284.94 127.561 284.314 127.561C283.68 127.561 283.194 127.733 282.858 128.079C282.532 128.424 282.312 128.881 282.2 129.451C282.098 130.011 282.046 130.697 282.046 131.509C282.046 132.349 282.098 133.053 282.2 133.623C282.312 134.192 282.532 134.649 282.858 134.995C283.194 135.34 283.68 135.513 284.314 135.513C284.94 135.513 285.416 135.34 285.742 134.995C286.078 134.649 286.298 134.192 286.4 133.623C286.512 133.053 286.568 132.349 286.568 131.509ZM291.425 131.411C290.903 131.205 290.501 130.907 290.221 130.515C289.941 130.123 289.801 129.647 289.801 129.087C289.801 128.583 289.927 128.13 290.179 127.729C290.431 127.318 290.805 126.996 291.299 126.763C291.803 126.52 292.41 126.399 293.119 126.399C293.829 126.399 294.431 126.52 294.925 126.763C295.429 126.996 295.807 127.318 296.059 127.729C296.321 128.13 296.451 128.583 296.451 129.087C296.451 129.628 296.307 130.104 296.017 130.515C295.728 130.916 295.331 131.215 294.827 131.411C295.406 131.588 295.863 131.901 296.199 132.349C296.545 132.787 296.717 133.319 296.717 133.945C296.717 134.551 296.568 135.083 296.269 135.541C295.971 135.989 295.546 136.339 294.995 136.591C294.454 136.833 293.829 136.955 293.119 136.955C292.41 136.955 291.785 136.833 291.243 136.591C290.711 136.339 290.296 135.989 289.997 135.541C289.699 135.083 289.549 134.551 289.549 133.945C289.549 133.319 289.717 132.783 290.053 132.335C290.389 131.887 290.847 131.579 291.425 131.411ZM295.219 129.241C295.219 128.671 295.033 128.233 294.659 127.925C294.286 127.617 293.773 127.463 293.119 127.463C292.475 127.463 291.967 127.617 291.593 127.925C291.22 128.233 291.033 128.676 291.033 129.255C291.033 129.777 291.225 130.197 291.607 130.515C291.999 130.832 292.503 130.991 293.119 130.991C293.745 130.991 294.249 130.832 294.631 130.515C295.023 130.188 295.219 129.763 295.219 129.241ZM293.119 131.971C292.429 131.971 291.864 132.134 291.425 132.461C290.987 132.778 290.767 133.259 290.767 133.903C290.767 134.5 290.977 134.981 291.397 135.345C291.827 135.709 292.401 135.891 293.119 135.891C293.838 135.891 294.407 135.709 294.827 135.345C295.247 134.981 295.457 134.5 295.457 133.903C295.457 133.277 295.243 132.801 294.813 132.475C294.384 132.139 293.819 131.971 293.119 131.971ZM304.051 128.961C303.846 127.925 303.207 127.407 302.133 127.407C301.303 127.407 300.682 127.729 300.271 128.373C299.861 129.007 299.66 130.057 299.669 131.523C299.884 131.037 300.239 130.659 300.733 130.389C301.237 130.109 301.797 129.969 302.413 129.969C303.375 129.969 304.14 130.267 304.709 130.865C305.288 131.462 305.577 132.288 305.577 133.343C305.577 133.977 305.451 134.547 305.199 135.051C304.957 135.555 304.583 135.956 304.079 136.255C303.585 136.553 302.983 136.703 302.273 136.703C301.312 136.703 300.561 136.488 300.019 136.059C299.478 135.629 299.1 135.037 298.885 134.281C298.671 133.525 298.563 132.591 298.563 131.481C298.563 128.055 299.758 126.343 302.147 126.343C303.062 126.343 303.781 126.59 304.303 127.085C304.826 127.579 305.134 128.205 305.227 128.961H304.051ZM302.147 131.047C301.746 131.047 301.368 131.131 301.013 131.299C300.659 131.457 300.369 131.705 300.145 132.041C299.931 132.367 299.823 132.769 299.823 133.245C299.823 133.954 300.029 134.533 300.439 134.981C300.85 135.419 301.438 135.639 302.203 135.639C302.857 135.639 303.375 135.438 303.757 135.037C304.149 134.626 304.345 134.075 304.345 133.385C304.345 132.657 304.159 132.087 303.785 131.677C303.412 131.257 302.866 131.047 302.147 131.047ZM313.75 127.659H308.836V130.851C309.051 130.552 309.368 130.309 309.788 130.123C310.208 129.927 310.661 129.829 311.146 129.829C311.921 129.829 312.551 129.992 313.036 130.319C313.521 130.636 313.867 131.051 314.072 131.565C314.287 132.069 314.394 132.605 314.394 133.175C314.394 133.847 314.268 134.449 314.016 134.981C313.764 135.513 313.377 135.933 312.854 136.241C312.341 136.549 311.701 136.703 310.936 136.703C309.956 136.703 309.163 136.451 308.556 135.947C307.949 135.443 307.581 134.771 307.45 133.931H308.696C308.817 134.463 309.074 134.878 309.466 135.177C309.858 135.475 310.353 135.625 310.95 135.625C311.687 135.625 312.243 135.405 312.616 134.967C312.989 134.519 313.176 133.931 313.176 133.203C313.176 132.475 312.989 131.915 312.616 131.523C312.243 131.121 311.692 130.921 310.964 130.921C310.469 130.921 310.035 131.042 309.662 131.285C309.298 131.518 309.032 131.84 308.864 132.251H307.66V126.539H313.75V127.659ZM322.541 127.659H317.627V130.851C317.842 130.552 318.159 130.309 318.579 130.123C318.999 129.927 319.452 129.829 319.937 129.829C320.712 129.829 321.342 129.992 321.827 130.319C322.312 130.636 322.658 131.051 322.863 131.565C323.078 132.069 323.185 132.605 323.185 133.175C323.185 133.847 323.059 134.449 322.807 134.981C322.555 135.513 322.168 135.933 321.645 136.241C321.132 136.549 320.492 136.703 319.727 136.703C318.747 136.703 317.954 136.451 317.347 135.947C316.74 135.443 316.372 134.771 316.241 133.931H317.487C317.608 134.463 317.865 134.878 318.257 135.177C318.649 135.475 319.144 135.625 319.741 135.625C320.478 135.625 321.034 135.405 321.407 134.967C321.78 134.519 321.967 133.931 321.967 133.203C321.967 132.475 321.78 131.915 321.407 131.523C321.034 131.121 320.483 130.921 319.755 130.921C319.26 130.921 318.826 131.042 318.453 131.285C318.089 131.518 317.823 131.84 317.655 132.251H316.451V126.539H322.541V127.659Z" fill="white"/>
<path fill-rule="evenodd" clip-rule="evenodd" d="M275.691 95.0846V58.291H283.05V95.0846H275.691ZM286.729 95.0846V58.291H290.409V95.0846H286.729ZM295.928 95.0846V58.291H299.607V95.0846H295.928ZM303.286 95.0846V58.291H312.485V95.0846H303.286ZM316.164 95.0846V58.291H319.843V95.0846H316.164ZM323.523 95.0846V58.291H327.202V95.0846H323.523Z" fill="white"/>
<path d="M79.55 108.172C80.586 108.172 81.4913 108.377 82.266 108.788C83.0407 109.199 83.638 109.777 84.058 110.524C84.4873 111.261 84.702 112.115 84.702 113.086C84.702 114.047 84.4873 114.901 84.058 115.648C83.638 116.395 83.036 116.973 82.252 117.384C81.4773 117.795 80.5767 118 79.55 118H75.868V108.172H79.55ZM79.396 115.928C80.3013 115.928 81.006 115.681 81.51 115.186C82.014 114.691 82.266 113.991 82.266 113.086C82.266 112.181 82.014 111.476 81.51 110.972C81.006 110.468 80.3013 110.216 79.396 110.216H78.262V115.928H79.396ZM93.7539 110.188V118H91.3599V116.936C91.1172 117.281 90.7859 117.561 90.3659 117.776C89.9552 117.981 89.4979 118.084 88.9939 118.084C88.3965 118.084 87.8692 117.953 87.4119 117.692C86.9545 117.421 86.5999 117.034 86.3479 116.53C86.0959 116.026 85.9699 115.433 85.9699 114.752V110.188H88.3499V114.43C88.3499 114.953 88.4852 115.359 88.7559 115.648C89.0265 115.937 89.3905 116.082 89.8479 116.082C90.3145 116.082 90.6832 115.937 90.9539 115.648C91.2245 115.359 91.3599 114.953 91.3599 114.43V110.188H93.7539ZM97.8675 111.49C98.1475 111.061 98.4975 110.725 98.9175 110.482C99.3375 110.23 99.8041 110.104 100.317 110.104V112.638H99.6595C99.0621 112.638 98.6141 112.769 98.3155 113.03C98.0168 113.282 97.8675 113.73 97.8675 114.374V118H95.4735V110.188H97.8675V111.49ZM100.986 114.08C100.986 113.277 101.135 112.573 101.434 111.966C101.742 111.359 102.157 110.893 102.68 110.566C103.202 110.239 103.786 110.076 104.43 110.076C104.98 110.076 105.461 110.188 105.872 110.412C106.292 110.636 106.614 110.93 106.838 111.294V110.188H109.232V118H106.838V116.894C106.604 117.258 106.278 117.552 105.858 117.776C105.447 118 104.966 118.112 104.416 118.112C103.781 118.112 103.202 117.949 102.68 117.622C102.157 117.286 101.742 116.815 101.434 116.208C101.135 115.592 100.986 114.883 100.986 114.08ZM106.838 114.094C106.838 113.497 106.67 113.025 106.334 112.68C106.007 112.335 105.606 112.162 105.13 112.162C104.654 112.162 104.248 112.335 103.912 112.68C103.585 113.016 103.422 113.483 103.422 114.08C103.422 114.677 103.585 115.153 103.912 115.508C104.248 115.853 104.654 116.026 105.13 116.026C105.606 116.026 106.007 115.853 106.334 115.508C106.67 115.163 106.838 114.691 106.838 114.094ZM110.488 114.094C110.488 113.282 110.651 112.573 110.978 111.966C111.314 111.359 111.776 110.893 112.364 110.566C112.961 110.239 113.642 110.076 114.408 110.076C115.388 110.076 116.204 110.333 116.858 110.846C117.52 111.359 117.954 112.083 118.16 113.016H115.612C115.397 112.419 114.982 112.12 114.366 112.12C113.927 112.12 113.577 112.293 113.316 112.638C113.054 112.974 112.924 113.459 112.924 114.094C112.924 114.729 113.054 115.219 113.316 115.564C113.577 115.9 113.927 116.068 114.366 116.068C114.982 116.068 115.397 115.769 115.612 115.172H118.16C117.954 116.087 117.52 116.805 116.858 117.328C116.195 117.851 115.378 118.112 114.408 118.112C113.642 118.112 112.961 117.949 112.364 117.622C111.776 117.295 111.314 116.829 110.978 116.222C110.651 115.615 110.488 114.906 110.488 114.094ZM120.644 109.376C120.224 109.376 119.879 109.255 119.608 109.012C119.347 108.76 119.216 108.452 119.216 108.088C119.216 107.715 119.347 107.407 119.608 107.164C119.879 106.912 120.224 106.786 120.644 106.786C121.055 106.786 121.391 106.912 121.652 107.164C121.923 107.407 122.058 107.715 122.058 108.088C122.058 108.452 121.923 108.76 121.652 109.012C121.391 109.255 121.055 109.376 120.644 109.376ZM121.834 110.188V118H119.44V110.188H121.834ZM127.125 118.112C126.36 118.112 125.669 117.949 125.053 117.622C124.447 117.295 123.966 116.829 123.611 116.222C123.266 115.615 123.093 114.906 123.093 114.094C123.093 113.291 123.271 112.587 123.625 111.98C123.98 111.364 124.465 110.893 125.081 110.566C125.697 110.239 126.388 110.076 127.153 110.076C127.919 110.076 128.609 110.239 129.225 110.566C129.841 110.893 130.327 111.364 130.681 111.98C131.036 112.587 131.213 113.291 131.213 114.094C131.213 114.897 131.031 115.606 130.667 116.222C130.313 116.829 129.823 117.295 129.197 117.622C128.581 117.949 127.891 118.112 127.125 118.112ZM127.125 116.04C127.583 116.04 127.97 115.872 128.287 115.536C128.614 115.2 128.777 114.719 128.777 114.094C128.777 113.469 128.619 112.988 128.301 112.652C127.993 112.316 127.611 112.148 127.153 112.148C126.687 112.148 126.299 112.316 125.991 112.652C125.683 112.979 125.529 113.459 125.529 114.094C125.529 114.719 125.679 115.2 125.977 115.536C126.285 115.872 126.668 116.04 127.125 116.04ZM128.973 108.186L125.599 109.6V107.948L128.973 106.324V108.186ZM137.243 110.104C138.158 110.104 138.886 110.403 139.427 111C139.978 111.588 140.253 112.4 140.253 113.436V118H137.873V113.758C137.873 113.235 137.738 112.829 137.467 112.54C137.197 112.251 136.833 112.106 136.375 112.106C135.918 112.106 135.554 112.251 135.283 112.54C135.013 112.829 134.877 113.235 134.877 113.758V118H132.483V110.188H134.877V111.224C135.12 110.879 135.447 110.608 135.857 110.412C136.268 110.207 136.73 110.104 137.243 110.104Z" fill="white"/>
<path d="M65.91 131.36C65.35 131.14 64.92 130.82 64.62 130.4C64.32 129.98 64.17 129.47 64.17 128.87C64.17 128.33 64.305 127.845 64.575 127.415C64.845 126.975 65.245 126.63 65.775 126.38C66.315 126.12 66.965 125.99 67.725 125.99C68.485 125.99 69.13 126.12 69.66 126.38C70.2 126.63 70.605 126.975 70.875 127.415C71.155 127.845 71.295 128.33 71.295 128.87C71.295 129.45 71.14 129.96 70.83 130.4C70.52 130.83 70.095 131.15 69.555 131.36C70.175 131.55 70.665 131.885 71.025 132.365C71.395 132.835 71.58 133.405 71.58 134.075C71.58 134.725 71.42 135.295 71.1 135.785C70.78 136.265 70.325 136.64 69.735 136.91C69.155 137.17 68.485 137.3 67.725 137.3C66.965 137.3 66.295 137.17 65.715 136.91C65.145 136.64 64.7 136.265 64.38 135.785C64.06 135.295 63.9 134.725 63.9 134.075C63.9 133.405 64.08 132.83 64.44 132.35C64.8 131.87 65.29 131.54 65.91 131.36ZM69.975 129.035C69.975 128.425 69.775 127.955 69.375 127.625C68.975 127.295 68.425 127.13 67.725 127.13C67.035 127.13 66.49 127.295 66.09 127.625C65.69 127.955 65.49 128.43 65.49 129.05C65.49 129.61 65.695 130.06 66.105 130.4C66.525 130.74 67.065 130.91 67.725 130.91C68.395 130.91 68.935 130.74 69.345 130.4C69.765 130.05 69.975 129.595 69.975 129.035ZM67.725 131.96C66.985 131.96 66.38 132.135 65.91 132.485C65.44 132.825 65.205 133.34 65.205 134.03C65.205 134.67 65.43 135.185 65.88 135.575C66.34 135.965 66.955 136.16 67.725 136.16C68.495 136.16 69.105 135.965 69.555 135.575C70.005 135.185 70.23 134.67 70.23 134.03C70.23 133.36 70 132.85 69.54 132.5C69.08 132.14 68.475 131.96 67.725 131.96ZM80.5269 137.135C79.8969 137.135 79.3319 137.03 78.8319 136.82C78.3319 136.6 77.9369 136.3 77.6469 135.92C77.3569 135.53 77.1969 135.085 77.1669 134.585H78.5769C78.6169 134.995 78.8069 135.33 79.1469 135.59C79.4969 135.85 79.9519 135.98 80.5119 135.98C81.0319 135.98 81.4419 135.865 81.7419 135.635C82.0419 135.405 82.1919 135.115 82.1919 134.765C82.1919 134.405 82.0319 134.14 81.7119 133.97C81.3919 133.79 80.8969 133.615 80.2269 133.445C79.6169 133.285 79.1169 133.125 78.7269 132.965C78.3469 132.795 78.0169 132.55 77.7369 132.23C77.4669 131.9 77.3319 131.47 77.3319 130.94C77.3319 130.52 77.4569 130.135 77.7069 129.785C77.9569 129.435 78.3119 129.16 78.7719 128.96C79.2319 128.75 79.7569 128.645 80.3469 128.645C81.2569 128.645 81.9919 128.875 82.5519 129.335C83.1119 129.795 83.4119 130.425 83.4519 131.225H82.0869C82.0569 130.795 81.8819 130.45 81.5619 130.19C81.2519 129.93 80.8319 129.8 80.3019 129.8C79.8119 129.8 79.4219 129.905 79.1319 130.115C78.8419 130.325 78.6969 130.6 78.6969 130.94C78.6969 131.21 78.7819 131.435 78.9519 131.615C79.1319 131.785 79.3519 131.925 79.6119 132.035C79.8819 132.135 80.2519 132.25 80.7219 132.38C81.3119 132.54 81.7919 132.7 82.1619 132.86C82.5319 133.01 82.8469 133.24 83.1069 133.55C83.3769 133.86 83.5169 134.265 83.5269 134.765C83.5269 135.215 83.4019 135.62 83.1519 135.98C82.9019 136.34 82.5469 136.625 82.0869 136.835C81.6369 137.035 81.1169 137.135 80.5269 137.135ZM92.9538 132.575C92.9538 132.835 92.9388 133.11 92.9088 133.4H86.3388C86.3888 134.21 86.6638 134.845 87.1638 135.305C87.6738 135.755 88.2888 135.98 89.0088 135.98C89.5988 135.98 90.0888 135.845 90.4788 135.575C90.8788 135.295 91.1588 134.925 91.3188 134.465H92.7888C92.5688 135.255 92.1288 135.9 91.4688 136.4C90.8088 136.89 89.9888 137.135 89.0088 137.135C88.2288 137.135 87.5288 136.96 86.9088 136.61C86.2988 136.26 85.8188 135.765 85.4688 135.125C85.1188 134.475 84.9438 133.725 84.9438 132.875C84.9438 132.025 85.1138 131.28 85.4538 130.64C85.7938 130 86.2688 129.51 86.8788 129.17C87.4988 128.82 88.2088 128.645 89.0088 128.645C89.7888 128.645 90.4788 128.815 91.0788 129.155C91.6788 129.495 92.1388 129.965 92.4588 130.565C92.7888 131.155 92.9538 131.825 92.9538 132.575ZM91.5438 132.29C91.5438 131.77 91.4288 131.325 91.1988 130.955C90.9688 130.575 90.6538 130.29 90.2538 130.1C89.8638 129.9 89.4288 129.8 88.9488 129.8C88.2588 129.8 87.6688 130.02 87.1788 130.46C86.6988 130.9 86.4238 131.51 86.3538 132.29H91.5438ZM104.641 128.63C105.281 128.63 105.851 128.765 106.351 129.035C106.851 129.295 107.246 129.69 107.536 130.22C107.826 130.75 107.971 131.395 107.971 132.155V137H106.621V132.35C106.621 131.53 106.416 130.905 106.006 130.475C105.606 130.035 105.061 129.815 104.371 129.815C103.661 129.815 103.096 130.045 102.676 130.505C102.256 130.955 102.046 131.61 102.046 132.47V137H100.696V132.35C100.696 131.53 100.491 130.905 100.081 130.475C99.6806 130.035 99.1356 129.815 98.4456 129.815C97.7356 129.815 97.1706 130.045 96.7506 130.505C96.3306 130.955 96.1206 131.61 96.1206 132.47V137H94.7556V128.78H96.1206V129.965C96.3906 129.535 96.7506 129.205 97.2006 128.975C97.6606 128.745 98.1656 128.63 98.7156 128.63C99.4056 128.63 100.016 128.785 100.546 129.095C101.076 129.405 101.471 129.86 101.731 130.46C101.961 129.88 102.341 129.43 102.871 129.11C103.401 128.79 103.991 128.63 104.641 128.63ZM117.71 132.575C117.71 132.835 117.695 133.11 117.665 133.4H111.095C111.145 134.21 111.42 134.845 111.92 135.305C112.43 135.755 113.045 135.98 113.765 135.98C114.355 135.98 114.845 135.845 115.235 135.575C115.635 135.295 115.915 134.925 116.075 134.465H117.545C117.325 135.255 116.885 135.9 116.225 136.4C115.565 136.89 114.745 137.135 113.765 137.135C112.985 137.135 112.285 136.96 111.665 136.61C111.055 136.26 110.575 135.765 110.225 135.125C109.875 134.475 109.7 133.725 109.7 132.875C109.7 132.025 109.87 131.28 110.21 130.64C110.55 130 111.025 129.51 111.635 129.17C112.255 128.82 112.965 128.645 113.765 128.645C114.545 128.645 115.235 128.815 115.835 129.155C116.435 129.495 116.895 129.965 117.215 130.565C117.545 131.155 117.71 131.825 117.71 132.575ZM116.3 132.29C116.3 131.77 116.185 131.325 115.955 130.955C115.725 130.575 115.41 130.29 115.01 130.1C114.62 129.9 114.185 129.8 113.705 129.8C113.015 129.8 112.425 130.02 111.935 130.46C111.455 130.9 111.18 131.51 111.11 132.29H116.3ZM122.421 137.135C121.791 137.135 121.226 137.03 120.726 136.82C120.226 136.6 119.831 136.3 119.541 135.92C119.251 135.53 119.091 135.085 119.061 134.585H120.471C120.511 134.995 120.701 135.33 121.041 135.59C121.391 135.85 121.846 135.98 122.406 135.98C122.926 135.98 123.336 135.865 123.636 135.635C123.936 135.405 124.086 135.115 124.086 134.765C124.086 134.405 123.926 134.14 123.606 133.97C123.286 133.79 122.791 133.615 122.121 133.445C121.511 133.285 121.011 133.125 120.621 132.965C120.241 132.795 119.911 132.55 119.631 132.23C119.361 131.9 119.226 131.47 119.226 130.94C119.226 130.52 119.351 130.135 119.601 129.785C119.851 129.435 120.206 129.16 120.666 128.96C121.126 128.75 121.651 128.645 122.241 128.645C123.151 128.645 123.886 128.875 124.446 129.335C125.006 129.795 125.306 130.425 125.346 131.225H123.981C123.951 130.795 123.776 130.45 123.456 130.19C123.146 129.93 122.726 129.8 122.196 129.8C121.706 129.8 121.316 129.905 121.026 130.115C120.736 130.325 120.591 130.6 120.591 130.94C120.591 131.21 120.676 131.435 120.846 131.615C121.026 131.785 121.246 131.925 121.506 132.035C121.776 132.135 122.146 132.25 122.616 132.38C123.206 132.54 123.686 132.7 124.056 132.86C124.426 133.01 124.741 133.24 125.001 133.55C125.271 133.86 125.411 134.265 125.421 134.765C125.421 135.215 125.296 135.62 125.046 135.98C124.796 136.34 124.441 136.625 123.981 136.835C123.531 137.035 123.011 137.135 122.421 137.135ZM129.013 129.905V134.75C129.013 135.15 129.098 135.435 129.268 135.605C129.438 135.765 129.733 135.845 130.153 135.845H131.158V137H129.928C129.168 137 128.598 136.825 128.218 136.475C127.838 136.125 127.648 135.55 127.648 134.75V129.905H126.583V128.78H127.648V126.71H129.013V128.78H131.158V129.905H129.013ZM134.177 130.115C134.417 129.645 134.757 129.28 135.197 129.02C135.647 128.76 136.192 128.63 136.832 128.63V130.04H136.472C134.942 130.04 134.177 130.87 134.177 132.53V137H132.812V128.78H134.177V130.115ZM145.908 132.575C145.908 132.835 145.893 133.11 145.863 133.4H139.293C139.343 134.21 139.618 134.845 140.118 135.305C140.628 135.755 141.243 135.98 141.963 135.98C142.553 135.98 143.043 135.845 143.433 135.575C143.833 135.295 144.113 134.925 144.273 134.465H145.743C145.523 135.255 145.083 135.9 144.423 136.4C143.763 136.89 142.943 137.135 141.963 137.135C141.183 137.135 140.483 136.96 139.863 136.61C139.253 136.26 138.773 135.765 138.423 135.125C138.073 134.475 137.898 133.725 137.898 132.875C137.898 132.025 138.068 131.28 138.408 130.64C138.748 130 139.223 129.51 139.833 129.17C140.453 128.82 141.163 128.645 141.963 128.645C142.743 128.645 143.433 128.815 144.033 129.155C144.633 129.495 145.093 129.965 145.413 130.565C145.743 131.155 145.908 131.825 145.908 132.575ZM144.498 132.29C144.498 131.77 144.383 131.325 144.153 130.955C143.923 130.575 143.608 130.29 143.208 130.1C142.818 129.9 142.383 129.8 141.903 129.8C141.213 129.8 140.623 130.02 140.133 130.46C139.653 130.9 139.378 131.51 139.308 132.29H144.498ZM150.62 137.135C149.99 137.135 149.425 137.03 148.925 136.82C148.425 136.6 148.03 136.3 147.74 135.92C147.45 135.53 147.29 135.085 147.26 134.585H148.67C148.71 134.995 148.9 135.33 149.24 135.59C149.59 135.85 150.045 135.98 150.605 135.98C151.125 135.98 151.535 135.865 151.835 135.635C152.135 135.405 152.285 135.115 152.285 134.765C152.285 134.405 152.125 134.14 151.805 133.97C151.485 133.79 150.99 133.615 150.32 133.445C149.71 133.285 149.21 133.125 148.82 132.965C148.44 132.795 148.11 132.55 147.83 132.23C147.56 131.9 147.425 131.47 147.425 130.94C147.425 130.52 147.55 130.135 147.8 129.785C148.05 129.435 148.405 129.16 148.865 128.96C149.325 128.75 149.85 128.645 150.44 128.645C151.35 128.645 152.085 128.875 152.645 129.335C153.205 129.795 153.505 130.425 153.545 131.225H152.18C152.15 130.795 151.975 130.45 151.655 130.19C151.345 129.93 150.925 129.8 150.395 129.8C149.905 129.8 149.515 129.905 149.225 130.115C148.935 130.325 148.79 130.6 148.79 130.94C148.79 131.21 148.875 131.435 149.045 131.615C149.225 131.785 149.445 131.925 149.705 132.035C149.975 132.135 150.345 132.25 150.815 132.38C151.405 132.54 151.885 132.7 152.255 132.86C152.625 133.01 152.94 133.24 153.2 133.55C153.47 133.86 153.61 134.265 153.62 134.765C153.62 135.215 153.495 135.62 153.245 135.98C152.995 136.34 152.64 136.625 152.18 136.835C151.73 137.035 151.21 137.135 150.62 137.135Z" fill="white"/>
<path fill-rule="evenodd" clip-rule="evenodd" d="M98.8068 70.6524H95.6346V73.8246H98.8068V70.6524ZM95.6346 67.4802C94.7933 67.4802 93.9864 67.8144 93.3915 68.4093C92.7966 69.0042 92.4624 69.8111 92.4624 70.6524V73.8246C92.4624 74.6659 92.7966 75.4728 93.3915 76.0677C93.9864 76.6626 94.7933 76.9968 95.6346 76.9968H98.8068C99.6481 76.9968 100.455 76.6626 101.05 76.0677C101.645 75.4728 101.979 74.6659 101.979 73.8246V70.6524C101.979 69.8111 101.645 69.0042 101.05 68.4093C100.455 67.8144 99.6481 67.4802 98.8068 67.4802H95.6346ZM111.496 70.6524H108.323V73.8246H111.496V70.6524ZM108.323 67.4802C107.482 67.4802 106.675 67.8144 106.08 68.4093C105.485 69.0042 105.151 69.8111 105.151 70.6524V73.8246C105.151 74.6659 105.485 75.4728 106.08 76.0677C106.675 76.6626 107.482 76.9968 108.323 76.9968H111.496C112.337 76.9968 113.144 76.6626 113.739 76.0677C114.334 75.4728 114.668 74.6659 114.668 73.8246V70.6524C114.668 69.8111 114.334 69.0042 113.739 68.4093C113.144 67.8144 112.337 67.4802 111.496 67.4802H108.323ZM124.184 70.6524H121.012V73.8246H124.184V70.6524ZM121.012 67.4802C120.171 67.4802 119.364 67.8144 118.769 68.4093C118.174 69.0042 117.84 69.8111 117.84 70.6524V73.8246C117.84 74.6659 118.174 75.4728 118.769 76.0677C119.364 76.6626 120.171 76.9968 121.012 76.9968H124.184C125.026 76.9968 125.832 76.6626 126.427 76.0677C127.022 75.4728 127.356 74.6659 127.356 73.8246V70.6524C127.356 69.8111 127.022 69.0042 126.427 68.4093C125.832 67.8144 125.026 67.4802 124.184 67.4802H121.012ZM98.8068 83.3412H95.6346V86.5134H98.8068V83.3412ZM95.6346 80.169C94.7933 80.169 93.9864 80.5032 93.3915 81.0981C92.7966 81.693 92.4624 82.4999 92.4624 83.3412V86.5134C92.4624 87.3547 92.7966 88.1615 93.3915 88.7564C93.9864 89.3513 94.7933 89.6855 95.6346 89.6855H98.8068C99.6481 89.6855 100.455 89.3513 101.05 88.7564C101.645 88.1615 101.979 87.3547 101.979 86.5134V83.3412C101.979 82.4999 101.645 81.693 101.05 81.0981C100.455 80.5032 99.6481 80.169 98.8068 80.169H95.6346ZM111.496 83.3412H108.323V86.5134H111.496V83.3412ZM108.323 80.169C107.482 80.169 106.675 80.5032 106.08 81.0981C105.485 81.693 105.151 82.4999 105.151 83.3412V86.5134C105.151 87.3547 105.485 88.1615 106.08 88.7564C106.675 89.3513 107.482 89.6855 108.323 89.6855H111.496C112.337 89.6855 113.144 89.3513 113.739 88.7564C114.334 88.1615 114.668 87.3547 114.668 86.5134V83.3412C114.668 82.4999 114.334 81.693 113.739 81.0981C113.144 80.5032 112.337 80.169 111.496 80.169H108.323ZM124.184 83.3412H121.012V86.5134H124.184V83.3412ZM121.012 80.169C120.171 80.169 119.364 80.5032 118.769 81.0981C118.174 81.693 117.84 82.4999 117.84 83.3412V86.5134C117.84 87.3547 118.174 88.1615 118.769 88.7564C119.364 89.3513 120.171 89.6855 121.012 89.6855H124.184C125.026 89.6855 125.832 89.3513 126.427 88.7564C127.022 88.1615 127.356 87.3547 127.356 86.5134V83.3412C127.356 82.4999 127.022 81.693 126.427 81.0981C125.832 80.5032 125.026 80.169 124.184 80.169H121.012Z" fill="white"/>
<path fill-rule="evenodd" clip-rule="evenodd" d="M87.7041 48.4471C87.2834 48.4471 86.88 48.6142 86.5825 48.9116C86.2851 49.2091 86.118 49.6125 86.118 50.0332V92.8577C86.118 93.2784 86.2851 93.6818 86.5825 93.9793C86.88 94.2767 87.2834 94.4438 87.7041 94.4438H132.115C132.987 94.4438 133.701 93.7317 133.701 92.8546V50.0364C133.701 49.1577 132.987 48.4471 132.115 48.4471H127.356V45.2749H132.115C134.744 45.2749 136.873 47.4114 136.873 50.0364V92.8546C136.873 93.4797 136.751 94.0988 136.512 94.6764C136.273 95.2541 135.922 95.779 135.48 96.2212C135.039 96.6634 134.514 97.0142 133.936 97.2535C133.359 97.4928 132.74 97.616 132.115 97.616H87.7041C86.4421 97.616 85.2318 97.1147 84.3395 96.2223C83.4471 95.33 82.9458 94.1197 82.9458 92.8577V50.0332C82.9458 48.7712 83.4471 47.5609 84.3395 46.6686C85.2318 45.7762 86.4421 45.2749 87.7041 45.2749H95.6346V48.4471H87.7041ZM121.012 48.4471H101.979V45.2749H121.012V48.4471Z" fill="white"/>
<path fill-rule="evenodd" clip-rule="evenodd" d="M133.701 62.722H86.1184V59.5498H133.701V62.722Z" fill="white"/>
<path d="M95.6348 42.1027C95.6348 41.682 95.8019 41.2786 96.0993 40.9812C96.3968 40.6837 96.8002 40.5166 97.2209 40.5166C97.6415 40.5166 98.0449 40.6837 98.3424 40.9812C98.6398 41.2786 98.807 41.682 98.807 42.1027V53.2054C98.807 53.626 98.6398 54.0294 98.3424 54.3269C98.0449 54.6243 97.6415 54.7915 97.2209 54.7915C96.8002 54.7915 96.3968 54.6243 96.0993 54.3269C95.8019 54.0294 95.6348 53.626 95.6348 53.2054V42.1027ZM121.012 42.1027C121.012 41.682 121.179 41.2786 121.477 40.9812C121.774 40.6837 122.178 40.5166 122.598 40.5166C123.019 40.5166 123.422 40.6837 123.72 40.9812C124.017 41.2786 124.184 41.682 124.184 42.1027V53.2054C124.184 53.626 124.017 54.0294 123.72 54.3269C123.422 54.6243 123.019 54.7915 122.598 54.7915C122.178 54.7915 121.774 54.6243 121.477 54.3269C121.179 54.0294 121.012 53.626 121.012 53.2054V42.1027Z" fill="white"/>
<path d="M267.302 289.377V291.295H263.298V293.367H266.294V295.229H263.298V299.205H260.904V289.377H267.302ZM272.116 299.317C271.351 299.317 270.66 299.154 270.044 298.827C269.438 298.5 268.957 298.034 268.602 297.427C268.257 296.82 268.084 296.111 268.084 295.299C268.084 294.496 268.262 293.792 268.616 293.185C268.971 292.569 269.456 292.098 270.072 291.771C270.688 291.444 271.379 291.281 272.144 291.281C272.91 291.281 273.6 291.444 274.216 291.771C274.832 292.098 275.318 292.569 275.672 293.185C276.027 293.792 276.204 294.496 276.204 295.299C276.204 296.102 276.022 296.811 275.658 297.427C275.304 298.034 274.814 298.5 274.188 298.827C273.572 299.154 272.882 299.317 272.116 299.317ZM272.116 297.245C272.574 297.245 272.961 297.077 273.278 296.741C273.605 296.405 273.768 295.924 273.768 295.299C273.768 294.674 273.61 294.193 273.292 293.857C272.984 293.521 272.602 293.353 272.144 293.353C271.678 293.353 271.29 293.521 270.982 293.857C270.674 294.184 270.52 294.664 270.52 295.299C270.52 295.924 270.67 296.405 270.968 296.741C271.276 297.077 271.659 297.245 272.116 297.245ZM279.868 292.695C280.148 292.266 280.498 291.93 280.918 291.687C281.338 291.435 281.805 291.309 282.318 291.309V293.843H281.66C281.063 293.843 280.615 293.974 280.316 294.235C280.018 294.487 279.868 294.935 279.868 295.579V299.205H277.474V291.393H279.868V292.695ZM293.431 291.309C294.401 291.309 295.171 291.603 295.741 292.191C296.319 292.779 296.609 293.596 296.609 294.641V299.205H294.229V294.963C294.229 294.459 294.093 294.072 293.823 293.801C293.561 293.521 293.197 293.381 292.731 293.381C292.264 293.381 291.895 293.521 291.625 293.801C291.363 294.072 291.233 294.459 291.233 294.963V299.205H288.853V294.963C288.853 294.459 288.717 294.072 288.447 293.801C288.185 293.521 287.821 293.381 287.355 293.381C286.888 293.381 286.519 293.521 286.249 293.801C285.987 294.072 285.857 294.459 285.857 294.963V299.205H283.463V291.393H285.857V292.373C286.099 292.046 286.417 291.79 286.809 291.603C287.201 291.407 287.644 291.309 288.139 291.309C288.727 291.309 289.249 291.435 289.707 291.687C290.173 291.939 290.537 292.298 290.799 292.765C291.069 292.336 291.438 291.986 291.905 291.715C292.371 291.444 292.88 291.309 293.431 291.309ZM297.807 295.285C297.807 294.482 297.956 293.778 298.255 293.171C298.563 292.564 298.978 292.098 299.501 291.771C300.024 291.444 300.607 291.281 301.251 291.281C301.802 291.281 302.282 291.393 302.693 291.617C303.113 291.841 303.435 292.135 303.659 292.499V291.393H306.053V299.205H303.659V298.099C303.426 298.463 303.099 298.757 302.679 298.981C302.268 299.205 301.788 299.317 301.237 299.317C300.602 299.317 300.024 299.154 299.501 298.827C298.978 298.491 298.563 298.02 298.255 297.413C297.956 296.797 297.807 296.088 297.807 295.285ZM303.659 295.299C303.659 294.702 303.491 294.23 303.155 293.885C302.828 293.54 302.427 293.367 301.951 293.367C301.475 293.367 301.069 293.54 300.733 293.885C300.406 294.221 300.243 294.688 300.243 295.285C300.243 295.882 300.406 296.358 300.733 296.713C301.069 297.058 301.475 297.231 301.951 297.231C302.427 297.231 302.828 297.058 303.155 296.713C303.491 296.368 303.659 295.896 303.659 295.299ZM307.309 295.299C307.309 294.487 307.472 293.778 307.799 293.171C308.135 292.564 308.597 292.098 309.185 291.771C309.782 291.444 310.464 291.281 311.229 291.281C312.209 291.281 313.026 291.538 313.679 292.051C314.342 292.564 314.776 293.288 314.981 294.221H312.433C312.218 293.624 311.803 293.325 311.187 293.325C310.748 293.325 310.398 293.498 310.137 293.843C309.876 294.179 309.745 294.664 309.745 295.299C309.745 295.934 309.876 296.424 310.137 296.769C310.398 297.105 310.748 297.273 311.187 297.273C311.803 297.273 312.218 296.974 312.433 296.377H314.981C314.776 297.292 314.342 298.01 313.679 298.533C313.016 299.056 312.2 299.317 311.229 299.317C310.464 299.317 309.782 299.154 309.185 298.827C308.597 298.5 308.135 298.034 307.799 297.427C307.472 296.82 307.309 296.111 307.309 295.299ZM317.466 290.581C317.046 290.581 316.7 290.46 316.43 290.217C316.168 289.965 316.038 289.657 316.038 289.293C316.038 288.92 316.168 288.612 316.43 288.369C316.7 288.117 317.046 287.991 317.466 287.991C317.876 287.991 318.212 288.117 318.474 288.369C318.744 288.612 318.88 288.92 318.88 289.293C318.88 289.657 318.744 289.965 318.474 290.217C318.212 290.46 317.876 290.581 317.466 290.581ZM318.656 291.393V299.205H316.262V291.393H318.656ZM323.946 299.317C323.181 299.317 322.49 299.154 321.874 298.827C321.268 298.5 320.787 298.034 320.432 297.427C320.087 296.82 319.914 296.111 319.914 295.299C319.914 294.496 320.092 293.792 320.446 293.185C320.801 292.569 321.286 292.098 321.902 291.771C322.518 291.444 323.209 291.281 323.974 291.281C324.74 291.281 325.43 291.444 326.046 291.771C326.662 292.098 327.148 292.569 327.502 293.185C327.857 293.792 328.034 294.496 328.034 295.299C328.034 296.102 327.852 296.811 327.488 297.427C327.134 298.034 326.644 298.5 326.018 298.827C325.402 299.154 324.712 299.317 323.946 299.317ZM323.946 297.245C324.404 297.245 324.791 297.077 325.108 296.741C325.435 296.405 325.598 295.924 325.598 295.299C325.598 294.674 325.44 294.193 325.122 293.857C324.814 293.521 324.432 293.353 323.974 293.353C323.508 293.353 323.12 293.521 322.812 293.857C322.504 294.184 322.35 294.664 322.35 295.299C322.35 295.924 322.5 296.405 322.798 296.741C323.106 297.077 323.489 297.245 323.946 297.245ZM325.794 289.391L322.42 290.805V289.153L325.794 287.529V289.391ZM334.065 291.309C334.979 291.309 335.707 291.608 336.249 292.205C336.799 292.793 337.075 293.605 337.075 294.641V299.205H334.695V294.963C334.695 294.44 334.559 294.034 334.289 293.745C334.018 293.456 333.654 293.311 333.197 293.311C332.739 293.311 332.375 293.456 332.105 293.745C331.834 294.034 331.699 294.44 331.699 294.963V299.205H329.305V291.393H331.699V292.429C331.941 292.084 332.268 291.813 332.679 291.617C333.089 291.412 333.551 291.309 334.065 291.309Z" fill="white"/>
<path d="M274.482 306.845C274.482 307.657 274.202 308.334 273.642 308.875C273.091 309.407 272.246 309.673 271.108 309.673H269.232V313.747H267.958V303.989H271.108C272.209 303.989 273.044 304.255 273.614 304.787C274.192 305.319 274.482 306.005 274.482 306.845ZM271.108 308.623C271.817 308.623 272.34 308.469 272.676 308.161C273.012 307.853 273.18 307.414 273.18 306.845C273.18 305.641 272.489 305.039 271.108 305.039H269.232V308.623H271.108ZM277.339 307.321C277.563 306.882 277.88 306.542 278.291 306.299C278.711 306.056 279.22 305.935 279.817 305.935V307.251H279.481C278.053 307.251 277.339 308.026 277.339 309.575V313.747H276.065V306.075H277.339V307.321ZM288.288 309.617C288.288 309.86 288.274 310.116 288.246 310.387H282.114C282.16 311.143 282.417 311.736 282.884 312.165C283.36 312.585 283.934 312.795 284.606 312.795C285.156 312.795 285.614 312.669 285.978 312.417C286.351 312.156 286.612 311.81 286.762 311.381H288.134C287.928 312.118 287.518 312.72 286.902 313.187C286.286 313.644 285.52 313.873 284.606 313.873C283.878 313.873 283.224 313.71 282.646 313.383C282.076 313.056 281.628 312.594 281.302 311.997C280.975 311.39 280.812 310.69 280.812 309.897C280.812 309.104 280.97 308.408 281.288 307.811C281.605 307.214 282.048 306.756 282.618 306.439C283.196 306.112 283.859 305.949 284.606 305.949C285.334 305.949 285.978 306.108 286.538 306.425C287.098 306.742 287.527 307.181 287.826 307.741C288.134 308.292 288.288 308.917 288.288 309.617ZM286.972 309.351C286.972 308.866 286.864 308.45 286.65 308.105C286.435 307.75 286.141 307.484 285.768 307.307C285.404 307.12 284.998 307.027 284.55 307.027C283.906 307.027 283.355 307.232 282.898 307.643C282.45 308.054 282.193 308.623 282.128 309.351H286.972ZM293.133 305.949C293.796 305.949 294.375 306.094 294.869 306.383C295.373 306.672 295.747 307.036 295.989 307.475V306.075H297.277V313.915C297.277 314.615 297.128 315.236 296.829 315.777C296.531 316.328 296.101 316.757 295.541 317.065C294.991 317.373 294.347 317.527 293.609 317.527C292.601 317.527 291.761 317.289 291.089 316.813C290.417 316.337 290.021 315.688 289.899 314.867H291.159C291.299 315.334 291.589 315.707 292.027 315.987C292.466 316.276 292.993 316.421 293.609 316.421C294.309 316.421 294.879 316.202 295.317 315.763C295.765 315.324 295.989 314.708 295.989 313.915V312.305C295.737 312.753 295.364 313.126 294.869 313.425C294.375 313.724 293.796 313.873 293.133 313.873C292.452 313.873 291.831 313.705 291.271 313.369C290.721 313.033 290.287 312.562 289.969 311.955C289.652 311.348 289.493 310.658 289.493 309.883C289.493 309.099 289.652 308.413 289.969 307.825C290.287 307.228 290.721 306.766 291.271 306.439C291.831 306.112 292.452 305.949 293.133 305.949ZM295.989 309.897C295.989 309.318 295.873 308.814 295.639 308.385C295.406 307.956 295.089 307.629 294.687 307.405C294.295 307.172 293.861 307.055 293.385 307.055C292.909 307.055 292.475 307.167 292.083 307.391C291.691 307.615 291.379 307.942 291.145 308.371C290.912 308.8 290.795 309.304 290.795 309.883C290.795 310.471 290.912 310.984 291.145 311.423C291.379 311.852 291.691 312.184 292.083 312.417C292.475 312.641 292.909 312.753 293.385 312.753C293.861 312.753 294.295 312.641 294.687 312.417C295.089 312.184 295.406 311.852 295.639 311.423C295.873 310.984 295.989 310.476 295.989 309.897ZM300.704 307.321C300.928 306.882 301.246 306.542 301.656 306.299C302.076 306.056 302.585 305.935 303.182 305.935V307.251H302.846C301.418 307.251 300.704 308.026 300.704 309.575V313.747H299.43V306.075H300.704V307.321ZM304.177 309.883C304.177 309.099 304.336 308.413 304.653 307.825C304.97 307.228 305.404 306.766 305.955 306.439C306.515 306.112 307.136 305.949 307.817 305.949C308.489 305.949 309.072 306.094 309.567 306.383C310.062 306.672 310.43 307.036 310.673 307.475V306.075H311.961V313.747H310.673V312.319C310.421 312.767 310.043 313.14 309.539 313.439C309.044 313.728 308.466 313.873 307.803 313.873C307.122 313.873 306.506 313.705 305.955 313.369C305.404 313.033 304.97 312.562 304.653 311.955C304.336 311.348 304.177 310.658 304.177 309.883ZM310.673 309.897C310.673 309.318 310.556 308.814 310.323 308.385C310.09 307.956 309.772 307.629 309.371 307.405C308.979 307.172 308.545 307.055 308.069 307.055C307.593 307.055 307.159 307.167 306.767 307.391C306.375 307.615 306.062 307.942 305.829 308.371C305.596 308.8 305.479 309.304 305.479 309.883C305.479 310.471 305.596 310.984 305.829 311.423C306.062 311.852 306.375 312.184 306.767 312.417C307.159 312.641 307.593 312.753 308.069 312.753C308.545 312.753 308.979 312.641 309.371 312.417C309.772 312.184 310.09 311.852 310.323 311.423C310.556 310.984 310.673 310.476 310.673 309.897ZM313.638 309.883C313.638 309.099 313.797 308.413 314.114 307.825C314.431 307.228 314.865 306.766 315.416 306.439C315.976 306.112 316.601 305.949 317.292 305.949C317.889 305.949 318.445 306.089 318.958 306.369C319.471 306.64 319.863 306.999 320.134 307.447V303.387H321.422V313.747H320.134V312.305C319.882 312.762 319.509 313.14 319.014 313.439C318.519 313.728 317.941 313.873 317.278 313.873C316.597 313.873 315.976 313.705 315.416 313.369C314.865 313.033 314.431 312.562 314.114 311.955C313.797 311.348 313.638 310.658 313.638 309.883ZM320.134 309.897C320.134 309.318 320.017 308.814 319.784 308.385C319.551 307.956 319.233 307.629 318.832 307.405C318.44 307.172 318.006 307.055 317.53 307.055C317.054 307.055 316.62 307.167 316.228 307.391C315.836 307.615 315.523 307.942 315.29 308.371C315.057 308.8 314.94 309.304 314.94 309.883C314.94 310.471 315.057 310.984 315.29 311.423C315.523 311.852 315.836 312.184 316.228 312.417C316.62 312.641 317.054 312.753 317.53 312.753C318.006 312.753 318.44 312.641 318.832 312.417C319.233 312.184 319.551 311.852 319.784 311.423C320.017 310.984 320.134 310.476 320.134 309.897ZM326.921 313.873C326.202 313.873 325.549 313.71 324.961 313.383C324.382 313.056 323.925 312.594 323.589 311.997C323.262 311.39 323.099 310.69 323.099 309.897C323.099 309.113 323.267 308.422 323.603 307.825C323.948 307.218 324.415 306.756 325.003 306.439C325.591 306.112 326.249 305.949 326.977 305.949C327.705 305.949 328.363 306.112 328.951 306.439C329.539 306.756 330.001 307.214 330.337 307.811C330.682 308.408 330.855 309.104 330.855 309.897C330.855 310.69 330.677 311.39 330.323 311.997C329.977 312.594 329.506 313.056 328.909 313.383C328.311 313.71 327.649 313.873 326.921 313.873ZM326.921 312.753C327.378 312.753 327.807 312.646 328.209 312.431C328.61 312.216 328.932 311.894 329.175 311.465C329.427 311.036 329.553 310.513 329.553 309.897C329.553 309.281 329.431 308.758 329.189 308.329C328.946 307.9 328.629 307.582 328.237 307.377C327.845 307.162 327.42 307.055 326.963 307.055C326.496 307.055 326.067 307.162 325.675 307.377C325.292 307.582 324.984 307.9 324.751 308.329C324.517 308.758 324.401 309.281 324.401 309.897C324.401 310.522 324.513 311.05 324.737 311.479C324.97 311.908 325.278 312.23 325.661 312.445C326.043 312.65 326.463 312.753 326.921 312.753Z" fill="white"/>
<path d="M319.533 234.489L301.71 226.851L283.888 234.489L292.799 238.308V243.4M319.533 234.489L310.621 238.308V243.4M319.533 234.489V244.673M292.799 243.4C292.799 243.4 295.77 242.127 301.71 242.127C307.65 242.127 310.621 243.4 310.621 243.4M292.799 243.4V245.946C292.799 247.117 293.03 248.275 293.477 249.357C293.925 250.438 294.582 251.42 295.409 252.248C296.237 253.075 297.219 253.732 298.3 254.179C299.381 254.627 300.54 254.858 301.71 254.858C302.88 254.858 304.039 254.627 305.12 254.179C306.202 253.732 307.184 253.075 308.011 252.248C308.839 251.42 309.495 250.438 309.943 249.357C310.391 248.275 310.621 247.117 310.621 245.946V243.4M290.974 264.286C288.173 266.03 280.825 269.587 285.298 274.04C287.485 276.219 289.922 277.772 292.98 277.772H310.441C313.501 277.772 315.935 276.217 318.122 274.04C322.596 269.587 315.25 266.03 312.447 264.288C309.224 262.286 305.505 261.224 301.71 261.224C297.916 261.224 294.197 262.286 290.974 264.288" stroke="white" stroke-width="4.33599" stroke-linecap="round" stroke-linejoin="round"/>
<path d="M81.2751 286.811V296.639H78.8811V290.745L76.6831 296.639H74.7511L72.5391 290.731V296.639H70.1451V286.811H72.9731L75.7311 293.615L78.4611 286.811H81.2751ZM86.5527 296.751C85.7873 296.751 85.0967 296.587 84.4807 296.261C83.874 295.934 83.3933 295.467 83.0387 294.861C82.6933 294.254 82.5207 293.545 82.5207 292.733C82.5207 291.93 82.698 291.225 83.0527 290.619C83.4073 290.003 83.8927 289.531 84.5087 289.205C85.1247 288.878 85.8153 288.715 86.5807 288.715C87.346 288.715 88.0367 288.878 88.6527 289.205C89.2687 289.531 89.754 290.003 90.1087 290.619C90.4633 291.225 90.6407 291.93 90.6407 292.733C90.6407 293.535 90.4587 294.245 90.0947 294.861C89.74 295.467 89.25 295.934 88.6247 296.261C88.0087 296.587 87.318 296.751 86.5527 296.751ZM86.5527 294.679C87.01 294.679 87.3973 294.511 87.7147 294.175C88.0413 293.839 88.2047 293.358 88.2047 292.733C88.2047 292.107 88.046 291.627 87.7287 291.291C87.4207 290.955 87.038 290.787 86.5807 290.787C86.114 290.787 85.7267 290.955 85.4187 291.291C85.1107 291.617 84.9567 292.098 84.9567 292.733C84.9567 293.358 85.106 293.839 85.4047 294.175C85.7127 294.511 86.0953 294.679 86.5527 294.679ZM91.4347 292.719C91.4347 291.916 91.5841 291.211 91.8827 290.605C92.1907 289.998 92.6061 289.531 93.1287 289.205C93.6514 288.878 94.2347 288.715 94.8787 288.715C95.3921 288.715 95.8587 288.822 96.2787 289.037C96.7081 289.251 97.0441 289.541 97.2867 289.905V286.279H99.6807V296.639H97.2867V295.519C97.0627 295.892 96.7407 296.191 96.3207 296.415C95.9101 296.639 95.4294 296.751 94.8787 296.751C94.2347 296.751 93.6514 296.587 93.1287 296.261C92.6061 295.925 92.1907 295.453 91.8827 294.847C91.5841 294.231 91.4347 293.521 91.4347 292.719ZM97.2867 292.733C97.2867 292.135 97.1187 291.664 96.7827 291.319C96.4561 290.973 96.0547 290.801 95.5787 290.801C95.1027 290.801 94.6967 290.973 94.3607 291.319C94.0341 291.655 93.8707 292.121 93.8707 292.719C93.8707 293.316 94.0341 293.792 94.3607 294.147C94.6967 294.492 95.1027 294.665 95.5787 294.665C96.0547 294.665 96.4561 294.492 96.7827 294.147C97.1187 293.801 97.2867 293.33 97.2867 292.733ZM100.937 292.719C100.937 291.916 101.086 291.211 101.385 290.605C101.693 289.998 102.108 289.531 102.631 289.205C103.153 288.878 103.737 288.715 104.381 288.715C104.931 288.715 105.412 288.827 105.823 289.051C106.243 289.275 106.565 289.569 106.789 289.933V288.827H109.183V296.639H106.789V295.533C106.555 295.897 106.229 296.191 105.809 296.415C105.398 296.639 104.917 296.751 104.367 296.751C103.732 296.751 103.153 296.587 102.631 296.261C102.108 295.925 101.693 295.453 101.385 294.847C101.086 294.231 100.937 293.521 100.937 292.719ZM106.789 292.733C106.789 292.135 106.621 291.664 106.285 291.319C105.958 290.973 105.557 290.801 105.081 290.801C104.605 290.801 104.199 290.973 103.863 291.319C103.536 291.655 103.373 292.121 103.373 292.719C103.373 293.316 103.536 293.792 103.863 294.147C104.199 294.492 104.605 294.665 105.081 294.665C105.557 294.665 105.958 294.492 106.285 294.147C106.621 293.801 106.789 293.33 106.789 292.733ZM113.309 286.279V296.639H110.915V286.279H113.309ZM116.248 288.015C115.828 288.015 115.482 287.893 115.212 287.651C114.95 287.399 114.82 287.091 114.82 286.727C114.82 286.353 114.95 286.045 115.212 285.803C115.482 285.551 115.828 285.425 116.248 285.425C116.658 285.425 116.994 285.551 117.256 285.803C117.526 286.045 117.662 286.353 117.662 286.727C117.662 287.091 117.526 287.399 117.256 287.651C116.994 287.893 116.658 288.015 116.248 288.015ZM117.438 288.827V296.639H115.044V288.827H117.438ZM118.696 292.719C118.696 291.916 118.846 291.211 119.144 290.605C119.452 289.998 119.868 289.531 120.39 289.205C120.913 288.878 121.496 288.715 122.14 288.715C122.654 288.715 123.12 288.822 123.54 289.037C123.97 289.251 124.306 289.541 124.548 289.905V286.279H126.942V296.639H124.548V295.519C124.324 295.892 124.002 296.191 123.582 296.415C123.172 296.639 122.691 296.751 122.14 296.751C121.496 296.751 120.913 296.587 120.39 296.261C119.868 295.925 119.452 295.453 119.144 294.847C118.846 294.231 118.696 293.521 118.696 292.719ZM124.548 292.733C124.548 292.135 124.38 291.664 124.044 291.319C123.718 290.973 123.316 290.801 122.84 290.801C122.364 290.801 121.958 290.973 121.622 291.319C121.296 291.655 121.132 292.121 121.132 292.719C121.132 293.316 121.296 293.792 121.622 294.147C121.958 294.492 122.364 294.665 122.84 294.665C123.316 294.665 123.718 294.492 124.044 294.147C124.38 293.801 124.548 293.33 124.548 292.733ZM128.198 292.719C128.198 291.916 128.348 291.211 128.646 290.605C128.954 289.998 129.37 289.531 129.892 289.205C130.415 288.878 130.998 288.715 131.642 288.715C132.193 288.715 132.674 288.827 133.084 289.051C133.504 289.275 133.826 289.569 134.05 289.933V288.827H136.444V296.639H134.05V295.533C133.817 295.897 133.49 296.191 133.07 296.415C132.66 296.639 132.179 296.751 131.628 296.751C130.994 296.751 130.415 296.587 129.892 296.261C129.37 295.925 128.954 295.453 128.646 294.847C128.348 294.231 128.198 293.521 128.198 292.719ZM134.05 292.733C134.05 292.135 133.882 291.664 133.546 291.319C133.22 290.973 132.818 290.801 132.342 290.801C131.866 290.801 131.46 290.973 131.124 291.319C130.798 291.655 130.634 292.121 130.634 292.719C130.634 293.316 130.798 293.792 131.124 294.147C131.46 294.492 131.866 294.665 132.342 294.665C132.818 294.665 133.22 294.492 133.546 294.147C133.882 293.801 134.05 293.33 134.05 292.733ZM137.7 292.719C137.7 291.916 137.85 291.211 138.148 290.605C138.456 289.998 138.872 289.531 139.394 289.205C139.917 288.878 140.5 288.715 141.144 288.715C141.658 288.715 142.124 288.822 142.544 289.037C142.974 289.251 143.31 289.541 143.552 289.905V286.279H145.946V296.639H143.552V295.519C143.328 295.892 143.006 296.191 142.586 296.415C142.176 296.639 141.695 296.751 141.144 296.751C140.5 296.751 139.917 296.587 139.394 296.261C138.872 295.925 138.456 295.453 138.148 294.847C137.85 294.231 137.7 293.521 137.7 292.719ZM143.552 292.733C143.552 292.135 143.384 291.664 143.048 291.319C142.722 290.973 142.32 290.801 141.844 290.801C141.368 290.801 140.962 290.973 140.626 291.319C140.3 291.655 140.136 292.121 140.136 292.719C140.136 293.316 140.3 293.792 140.626 294.147C140.962 294.492 141.368 294.665 141.844 294.665C142.32 294.665 142.722 294.492 143.048 294.147C143.384 293.801 143.552 293.33 143.552 292.733Z" fill="white"/>
<path d="M80.3007 306.845C80.3007 307.657 80.0207 308.334 79.4607 308.875C78.9101 309.407 78.0654 309.673 76.9267 309.673H75.0507V313.747H73.7767V303.989H76.9267C78.0281 303.989 78.8634 304.255 79.4327 304.787C80.0114 305.319 80.3007 306.005 80.3007 306.845ZM76.9267 308.623C77.6361 308.623 78.1587 308.469 78.4947 308.161C78.8307 307.853 78.9987 307.414 78.9987 306.845C78.9987 305.641 78.3081 305.039 76.9267 305.039H75.0507V308.623H76.9267ZM83.1582 307.321C83.3822 306.882 83.6995 306.542 84.1102 306.299C84.5302 306.056 85.0388 305.935 85.6362 305.935V307.251H85.3002C83.8722 307.251 83.1582 308.026 83.1582 309.575V313.747H81.8842V306.075H83.1582V307.321ZM94.1068 309.617C94.1068 309.86 94.0928 310.116 94.0648 310.387H87.9328C87.9795 311.143 88.2361 311.736 88.7028 312.165C89.1788 312.585 89.7528 312.795 90.4248 312.795C90.9755 312.795 91.4328 312.669 91.7968 312.417C92.1701 312.156 92.4315 311.81 92.5808 311.381H93.9528C93.7475 312.118 93.3368 312.72 92.7208 313.187C92.1048 313.644 91.3395 313.873 90.4248 313.873C89.6968 313.873 89.0435 313.71 88.4648 313.383C87.8955 313.056 87.4475 312.594 87.1208 311.997C86.7941 311.39 86.6308 310.69 86.6308 309.897C86.6308 309.104 86.7895 308.408 87.1068 307.811C87.4241 307.214 87.8675 306.756 88.4368 306.439C89.0155 306.112 89.6781 305.949 90.4248 305.949C91.1528 305.949 91.7968 306.108 92.3568 306.425C92.9168 306.742 93.3461 307.181 93.6448 307.741C93.9528 308.292 94.1068 308.917 94.1068 309.617ZM92.7908 309.351C92.7908 308.866 92.6835 308.45 92.4688 308.105C92.2541 307.75 91.9601 307.484 91.5868 307.307C91.2228 307.12 90.8168 307.027 90.3688 307.027C89.7248 307.027 89.1741 307.232 88.7168 307.643C88.2688 308.054 88.0121 308.623 87.9468 309.351H92.7908ZM98.5044 313.873C97.9164 313.873 97.3891 313.775 96.9224 313.579C96.4558 313.374 96.0871 313.094 95.8164 312.739C95.5458 312.375 95.3964 311.96 95.3684 311.493H96.6844C96.7218 311.876 96.8991 312.188 97.2164 312.431C97.5431 312.674 97.9678 312.795 98.4904 312.795C98.9758 312.795 99.3584 312.688 99.6384 312.473C99.9184 312.258 100.058 311.988 100.058 311.661C100.058 311.325 99.9091 311.078 99.6104 310.919C99.3118 310.751 98.8498 310.588 98.2244 310.429C97.6551 310.28 97.1884 310.13 96.8244 309.981C96.4698 309.822 96.1618 309.594 95.9004 309.295C95.6484 308.987 95.5224 308.586 95.5224 308.091C95.5224 307.699 95.6391 307.34 95.8724 307.013C96.1058 306.686 96.4371 306.43 96.8664 306.243C97.2958 306.047 97.7858 305.949 98.3364 305.949C99.1858 305.949 99.8718 306.164 100.394 306.593C100.917 307.022 101.197 307.61 101.234 308.357H99.9604C99.9324 307.956 99.7691 307.634 99.4704 307.391C99.1811 307.148 98.7891 307.027 98.2944 307.027C97.8371 307.027 97.4731 307.125 97.2024 307.321C96.9318 307.517 96.7964 307.774 96.7964 308.091C96.7964 308.343 96.8758 308.553 97.0344 308.721C97.2024 308.88 97.4078 309.01 97.6504 309.113C97.9024 309.206 98.2478 309.314 98.6864 309.435C99.2371 309.584 99.6851 309.734 100.03 309.883C100.376 310.023 100.67 310.238 100.912 310.527C101.164 310.816 101.295 311.194 101.304 311.661C101.304 312.081 101.188 312.459 100.954 312.795C100.721 313.131 100.39 313.397 99.9604 313.593C99.5404 313.78 99.0551 313.873 98.5044 313.873ZM110.103 309.617C110.103 309.86 110.089 310.116 110.061 310.387H103.929C103.976 311.143 104.232 311.736 104.699 312.165C105.175 312.585 105.749 312.795 106.421 312.795C106.972 312.795 107.429 312.669 107.793 312.417C108.166 312.156 108.428 311.81 108.577 311.381H109.949C109.744 312.118 109.333 312.72 108.717 313.187C108.101 313.644 107.336 313.873 106.421 313.873C105.693 313.873 105.04 313.71 104.461 313.383C103.892 313.056 103.444 312.594 103.117 311.997C102.79 311.39 102.627 310.69 102.627 309.897C102.627 309.104 102.786 308.408 103.103 307.811C103.42 307.214 103.864 306.756 104.433 306.439C105.012 306.112 105.674 305.949 106.421 305.949C107.149 305.949 107.793 306.108 108.353 306.425C108.913 306.742 109.342 307.181 109.641 307.741C109.949 308.292 110.103 308.917 110.103 309.617ZM108.787 309.351C108.787 308.866 108.68 308.45 108.465 308.105C108.25 307.75 107.956 307.484 107.583 307.307C107.219 307.12 106.813 307.027 106.365 307.027C105.721 307.027 105.17 307.232 104.713 307.643C104.265 308.054 104.008 308.623 103.943 309.351H108.787ZM115.523 305.935C116.456 305.935 117.212 306.22 117.791 306.789C118.369 307.349 118.659 308.161 118.659 309.225V313.747H117.399V309.407C117.399 308.642 117.207 308.058 116.825 307.657C116.442 307.246 115.919 307.041 115.257 307.041C114.585 307.041 114.048 307.251 113.647 307.671C113.255 308.091 113.059 308.702 113.059 309.505V313.747H111.785V306.075H113.059V307.167C113.311 306.775 113.651 306.472 114.081 306.257C114.519 306.042 115 305.935 115.523 305.935ZM120.264 309.897C120.264 309.104 120.422 308.413 120.74 307.825C121.057 307.228 121.496 306.766 122.056 306.439C122.625 306.112 123.274 305.949 124.002 305.949C124.944 305.949 125.719 306.178 126.326 306.635C126.942 307.092 127.348 307.727 127.544 308.539H126.172C126.041 308.072 125.784 307.704 125.402 307.433C125.028 307.162 124.562 307.027 124.002 307.027C123.274 307.027 122.686 307.279 122.238 307.783C121.79 308.278 121.566 308.982 121.566 309.897C121.566 310.821 121.79 311.535 122.238 312.039C122.686 312.543 123.274 312.795 124.002 312.795C124.562 312.795 125.028 312.664 125.402 312.403C125.775 312.142 126.032 311.768 126.172 311.283H127.544C127.338 312.067 126.928 312.697 126.312 313.173C125.696 313.64 124.926 313.873 124.002 313.873C123.274 313.873 122.625 313.71 122.056 313.383C121.496 313.056 121.057 312.594 120.74 311.997C120.422 311.4 120.264 310.7 120.264 309.897ZM129.902 304.829C129.659 304.829 129.454 304.745 129.286 304.577C129.118 304.409 129.034 304.204 129.034 303.961C129.034 303.718 129.118 303.513 129.286 303.345C129.454 303.177 129.659 303.093 129.902 303.093C130.135 303.093 130.331 303.177 130.49 303.345C130.658 303.513 130.742 303.718 130.742 303.961C130.742 304.204 130.658 304.409 130.49 304.577C130.331 304.745 130.135 304.829 129.902 304.829ZM130.518 306.075V313.747H129.244V306.075H130.518ZM132.213 309.883C132.213 309.099 132.372 308.413 132.689 307.825C133.006 307.228 133.44 306.766 133.991 306.439C134.551 306.112 135.172 305.949 135.853 305.949C136.525 305.949 137.108 306.094 137.603 306.383C138.098 306.672 138.466 307.036 138.709 307.475V306.075H139.997V313.747H138.709V312.319C138.457 312.767 138.079 313.14 137.575 313.439C137.08 313.728 136.502 313.873 135.839 313.873C135.158 313.873 134.542 313.705 133.991 313.369C133.44 313.033 133.006 312.562 132.689 311.955C132.372 311.348 132.213 310.658 132.213 309.883ZM138.709 309.897C138.709 309.318 138.592 308.814 138.359 308.385C138.126 307.956 137.808 307.629 137.407 307.405C137.015 307.172 136.581 307.055 136.105 307.055C135.629 307.055 135.195 307.167 134.803 307.391C134.411 307.615 134.098 307.942 133.865 308.371C133.632 308.8 133.515 309.304 133.515 309.883C133.515 310.471 133.632 310.984 133.865 311.423C134.098 311.852 134.411 312.184 134.803 312.417C135.195 312.641 135.629 312.753 136.105 312.753C136.581 312.753 137.015 312.641 137.407 312.417C137.808 312.184 138.126 311.852 138.359 311.423C138.592 310.984 138.709 310.476 138.709 309.897ZM143.424 303.387V313.747H142.15V303.387H143.424Z" fill="white"/>
<path d="M81.1643 273.821H138.683M84.114 247.274V273.821M137.209 247.274V273.821M97.3876 232.525V273.821M123.935 232.525V273.821M81.1643 247.274H95.9128M140.158 247.274H125.41M94.4379 232.525H126.885M110.661 232.525V223.623M110.661 223.623V217.688C110.661 216.29 110.661 215.591 111.092 215.157C112.449 213.792 118.036 217.019 120.159 218.328C121.953 219.432 122.46 221.638 122.46 223.623H110.661ZM110.661 273.821V267.922M106.237 244.324V245.799M115.086 244.324V245.799M106.237 256.123V257.598M115.086 256.123V257.598" stroke="white" stroke-width="5.01349" stroke-linecap="round" stroke-linejoin="round"/>
</svg>
